<svg width="749" height="488" viewBox="0 0 749 488" fill="none" xmlns="http://www.w3.org/2000/svg">
<g id="undraw_spread_love_re_v3cl 1" clip-path="url(#clip0_298_102)">
<g id="Group 427322606">
<path id="Vector" d="M484.133 84.8785C483.863 84.5285 483.593 84.1785 483.303 83.8385C478.993 78.6485 472.983 75.3185 466.263 74.3785C459.423 73.4285 452.613 75.0785 446.993 79.0185C437.853 67.7785 421.313 65.7085 409.663 74.5185C408.863 75.1185 408.113 75.7585 407.403 76.4285C406.903 76.8985 406.433 77.3885 405.983 77.8885C406.033 77.9685 406.083 78.0385 406.143 78.1185L437.863 120.788L438.663 120.188C440.343 118.948 479.623 89.7385 480.863 88.8085C482.213 87.7885 483.443 86.6585 484.543 85.4485C484.413 85.2585 484.273 85.0685 484.133 84.8785Z" fill="#F1DB12"/>
</g>
<path id="Vector_2" d="M486.133 50.8785C481.773 45.0985 475.423 41.3785 468.263 40.3785C461.423 39.4285 454.613 41.0785 448.993 45.0185C439.853 33.7785 423.313 31.7085 411.663 40.5185C400.003 49.3185 397.493 66.0385 405.983 77.8885C406.033 77.9685 406.083 78.0385 406.143 78.1185L437.863 120.788L438.663 120.188C440.343 118.949 479.623 89.7385 480.863 88.8085C482.213 87.7885 483.443 86.6585 484.543 85.4485C493.163 76.0085 494.123 61.4385 486.133 50.8785ZM483.303 83.8385C482.213 85.0685 480.993 86.1985 479.653 87.2085C478.523 88.0685 444.013 113.718 438.274 117.989L407.753 76.9285C407.633 76.7685 407.513 76.5985 407.403 76.4285C399.783 65.4685 402.173 50.1985 412.873 42.1085C417.393 38.6985 422.693 37.0485 427.963 37.0485C435.563 37.0485 443.084 40.4785 448.003 46.9985L448.603 47.7985L449.403 47.1885C460.433 38.8585 476.204 41.0485 484.543 52.0785C488.584 57.4285 490.293 64.0185 489.373 70.6585C488.683 75.6385 486.573 80.1785 483.303 83.8385Z" fill="#3F3D56"/>
<path id="Vector_3" d="M701.538 102L695.008 101C694.108 96.4198 692.778 91.9098 691.048 87.5698C691.788 91.7898 691.508 96.1798 690.288 100.28L619.978 89.5298C623.418 74.4098 625.368 60.2798 624.208 48.1898C622.478 30.0498 635.918 13.7198 654.128 13.0798C654.628 13.0598 655.138 13.0498 655.648 13.0498C672.518 13.0498 686.448 22.9098 688.478 35.6498C689.198 40.2098 690.208 44.7298 691.048 49.2798C694.198 66.3198 707.378 89.0298 701.538 102Z" fill="#2F2E41"/>
<path id="Vector_4" d="M516.72 129.132C518.988 130.073 520.856 131.449 522.124 132.974L544.297 140.575L540.371 151.02L518.302 142.185C516.326 142.364 514.034 142.014 511.765 141.072C506.584 138.922 503.493 134.507 504.861 131.209C506.229 127.912 511.539 126.982 516.72 129.132Z" fill="#FFB6B6"/>
<g id="Group">
<path id="Vector_5" d="M588.017 464.408L579.247 464.615L574.359 425.218L587.3 424.912L588.017 464.408Z" fill="#FFB7B7"/>
<path id="Vector_6" d="M557.931 482.703C557.931 484.184 558.982 485.385 560.279 485.385H577.685C577.685 485.385 579.398 478.5 586.382 475.537L586.864 485.385H595.843L594.755 469.549C594.755 469.549 597.157 461.077 592.168 456.746C587.18 452.415 591.22 453.018 591.22 453.018L589.258 443.217L575.69 444.812L575.59 460.198L569.005 475.47L559.347 480.241C558.487 480.666 557.931 481.633 557.931 482.703Z" fill="#2F2E41"/>
</g>
<g id="Group_2">
<path id="Vector_7" d="M682.284 464.408L673.515 464.615L668.627 425.218L681.568 424.912L682.284 464.408Z" fill="#FFB7B7"/>
<path id="Vector_8" d="M652.198 482.703C652.198 484.184 653.25 485.385 654.546 485.385H671.952C671.952 485.385 673.665 478.5 680.649 475.537L681.131 485.385H690.11L689.022 469.549C689.022 469.549 691.424 461.077 686.436 456.746C681.448 452.415 685.488 453.018 685.488 453.018L683.526 443.217L669.957 444.812L669.857 460.198L663.273 475.47L653.614 480.241C652.755 480.666 652.198 481.633 652.198 482.703Z" fill="#2F2E41"/>
</g>
<path id="Vector_9" d="M611.537 178L665.537 187C672.616 198.702 686.537 243 686.537 243C686.537 243 682.89 366.063 686.008 437.263L663.537 438L633.537 279L593.537 434L571.717 435.544L574.537 325C574.537 325 604.689 179.37 611.537 178Z" fill="#2F2E41"/>
<path id="Vector_10" d="M637.026 79.7812L664.525 80.6406L692.883 118.451C681.885 146.243 671.542 166.311 671.993 186.128C672.031 187.807 674.769 191.579 674.993 193.128C675.296 195.222 671.316 198.295 671.993 200.128L605.537 186C606.882 184.103 605.724 181.706 606.537 180C607.252 178.5 609.996 177.676 610.329 176.222C612.128 168.366 613.089 155.26 606.317 139.869C601.501 128.926 622.697 103.396 621.558 90.9526L637.026 79.7812Z" fill="#E6E6E6"/>
<path id="Vector_11" d="M643.331 97.4356L592.748 165.714L533.454 149.387L536.032 133.919L581.182 142.47L606.371 103.747C614.596 87.8478 630.807 84.6459 643.331 97.4356Z" fill="#E6E6E6"/>
<path id="Vector_12" d="M649.852 71.0705C663.027 71.0705 673.708 60.3896 673.708 47.214C673.708 34.0384 663.027 23.3574 649.852 23.3574C636.676 23.3574 625.995 34.0384 625.995 47.214C625.995 60.3896 636.676 71.0705 649.852 71.0705Z" fill="#FFB7B7"/>
<path id="Vector_13" d="M672.036 261.324C672.707 258.962 673.856 256.947 675.223 255.51L680.192 232.603L691.023 235.286L684.816 258.234C685.224 260.175 685.143 262.493 684.472 264.855C682.94 270.252 678.913 273.836 675.479 272.861C672.045 271.886 670.504 266.72 672.036 261.324Z" fill="#FFB6B6"/>
<path id="Vector_14" d="M673.535 93.6284C673.535 93.6284 693.532 92.6099 694.988 105.871C696.445 119.131 701.103 194.655 701.103 194.655L690.305 245.632L674.907 243.493L681.712 178.604L673.535 93.6284Z" fill="#E6E6E6"/>
<path id="Vector_15" d="M674.107 26.9401C674.107 32.33 671.117 39.27 671.117 47.42L662.047 45.0601C661.867 43.48 660.947 38.54 660.537 37.0001C660.747 38.4501 661.197 43.3201 660.697 44.7001L656.247 43.54C656.217 42.71 656.147 41.8801 656.047 41.0601C655.867 39.48 655.567 37.92 655.157 36.3801C655.367 37.83 655.197 39.3201 654.697 40.7001C654.407 41.46 654.027 42.1801 653.547 42.84L631.587 37.1101C626.268 35.1085 625.453 42.1524 625.537 51.0001C625.537 51.0001 622.537 20.0001 645.337 18.21L648.777 14.77C669.487 15.96 674.107 20.2501 674.107 26.9401Z" fill="#2F2E41"/>
<path id="Vector_16" d="M625.224 56.2866C626.04 64.6125 625.044 72.989 623.859 81.2799C623.478 83.9481 623.054 86.6794 621.632 89.0548C620.211 91.4302 617.566 93.4136 614.536 93.4752C619.3 94.7618 624.793 93.634 628.437 90.6215C632.135 87.563 633.761 82.9273 633.886 78.4423C634.01 73.9572 632.797 69.5375 631.591 65.1805L625.224 56.2866Z" fill="#2F2E41"/>
<path id="Vector_17" d="M668.768 24.21C669.585 39.3895 668.589 54.6613 667.404 69.777C667.023 74.6417 666.599 79.6212 665.177 83.9521C663.756 88.2829 661.111 91.8989 658.081 92.0112C662.845 94.357 668.338 92.3008 671.982 86.8084C675.68 81.2324 677.306 72.7806 677.431 64.6036C677.555 56.4265 676.342 48.3687 675.136 40.425L668.768 24.21Z" fill="#2F2E41"/>
<g id="Group_3">
<path id="Vector_18" d="M161.675 476.782L176.029 476.78L182.857 421.414L161.672 421.415L161.675 476.782Z" fill="#A0616A"/>
<path id="Vector_19" d="M210.854 476.456C211.301 477.209 211.537 479.638 211.537 480.514C211.537 483.204 209.356 485.386 206.665 485.386H162.212C160.376 485.386 158.888 483.898 158.888 482.062V480.211C158.888 480.211 156.689 474.649 161.217 467.793C161.217 467.793 166.844 473.161 175.252 464.753L177.732 460.261L195.68 473.388L205.628 474.612C207.805 474.88 209.735 474.571 210.854 476.456Z" fill="#2F2E41"/>
</g>
<g id="Group_4">
<path id="Vector_20" d="M117.675 476.782L132.029 476.78L138.857 421.414L117.672 421.415L117.675 476.782Z" fill="#A0616A"/>
<path id="Vector_21" d="M166.854 476.456C167.301 477.209 167.537 479.638 167.537 480.514C167.537 483.204 165.356 485.386 162.665 485.386H118.212C116.376 485.386 114.888 483.898 114.888 482.062V480.211C114.888 480.211 112.689 474.649 117.217 467.793C117.217 467.793 122.844 473.161 131.252 464.753L133.732 460.261L151.68 473.388L161.628 474.612C163.805 474.88 165.735 474.571 166.854 476.456Z" fill="#2F2E41"/>
</g>
<path id="Vector_22" d="M120.037 199.5L111.037 342.5L115.537 452.835H143.545L161.037 265.5L157.151 452.835L183.037 452.5L210.537 237C210.537 237 210.037 214.5 201.537 203C193.037 191.5 120.037 199.5 120.037 199.5Z" fill="#2F2E41"/>
<path id="Vector_23" d="M224.252 166.604L201.708 167.492L204.341 192.673L248.537 226L254.537 217L222.801 180.457L224.252 166.604Z" fill="#A0616A"/>
<path id="Vector_24" d="M181.537 74L150.537 71L127.537 82V173L120.223 188.292C117.868 193.217 117.62 198.889 119.537 204L201.537 203L199.537 192L203.537 171L206.537 94L181.537 74Z" fill="#E6E6E6"/>
<path id="Vector_25" d="M200.037 93.5C200.037 93.5 207.037 86.5 212.037 104.5C217.037 122.5 229.037 186.5 229.037 186.5L200.537 187L193.037 118.5L200.037 93.5Z" fill="#E6E6E6"/>
<path id="Vector_26" d="M120.037 170.5L117.037 244.354L106.037 245.5L102.037 172.5L120.037 170.5Z" fill="#A0616A"/>
<path id="Vector_27" d="M139.037 82.5C139.037 82.5 121.037 75.5 116.037 93.5C111.037 111.5 99.0371 175.5 99.0371 175.5L121.037 177.079L146.037 107.5L139.037 82.5Z" fill="#E6E6E6"/>
<path id="Vector_28" d="M165.179 65.289C180.285 65.289 192.53 53.0439 192.53 37.9387C192.53 22.8335 180.285 10.5884 165.179 10.5884C150.074 10.5884 137.829 22.8335 137.829 37.9387C137.829 53.0439 150.074 65.289 165.179 65.289Z" fill="#A0616A"/>
<path id="Vector_29" d="M112.144 266.585C116.707 266.43 120.195 260.074 119.934 252.388C119.673 244.703 115.761 238.598 111.198 238.753C106.635 238.908 103.147 245.265 103.409 252.95C103.67 260.636 107.581 266.74 112.144 266.585Z" fill="#A0616A"/>
<path id="Vector_30" d="M269.979 237.031C273.048 233.651 270.922 226.719 265.23 221.549C259.537 216.379 252.434 214.928 249.364 218.308C246.294 221.688 248.42 228.619 254.113 233.789C259.806 238.959 266.909 240.411 269.979 237.031Z" fill="#A0616A"/>
<path id="Vector_31" d="M186.372 14.4019C183.659 10.1352 181.794 11.8613 176.765 11.3347C173.883 11.0328 168.491 6.50291 165.669 7.15853C161.948 8.02276 158.134 8.92646 154.965 11.0599C148.248 7.10813 145.859 14.8431 140.034 20.0215C134.209 25.1999 132.234 34.2534 135.372 41.3874C136.866 44.7848 136.752 48.39 139.183 51.1948C141.981 54.4239 143.523 58.9182 143.738 59.1669C144.903 60.5107 150.388 61.454 150.612 61.7122C152.808 64.2466 156.347 63.4656 158.543 66L159.81 52.5914C158.032 50.9586 156.191 49.2357 155.362 46.9685C154.532 44.7014 155.082 41.7322 157.212 40.5962C158.888 39.7027 161.129 40.1045 162.589 38.8902C164.817 37.0367 163.443 33.1595 165.065 30.7577C166.024 29.3375 167.804 28.7659 169.449 28.2883C172.117 27.5141 174.784 26.7399 177.452 25.9658C179.933 25.2456 182.482 24.518 185.057 24.7236C187.633 24.9292 190.282 26.2729 191.3 28.6479C190.361 23.6798 189.084 18.6686 186.372 14.4019Z" fill="#2F2E41"/>
<g id="Group 427322605">
<path id="Vector_32" d="M279.412 186.299C276.02 177.558 266.184 173.222 257.442 176.614C248.784 179.974 244.452 189.656 247.667 198.334L247.414 198.433L259.698 230.088L288.827 218.784C289.79 218.593 290.75 218.322 291.697 217.955C300.438 214.562 304.775 204.726 301.382 195.985C297.99 187.243 288.154 182.907 279.412 186.299Z" fill="#F1DB12"/>
</g>
<path id="Vector_33" d="M516.537 17V123C516.537 132.374 508.911 140 499.537 140H393.537C384.163 140 376.537 132.374 376.537 123V17C376.537 7.62598 384.163 0 393.537 0H499.537C508.911 0 516.537 7.62598 516.537 17ZM499.537 138C507.821 138 514.537 131.284 514.537 123V69.5591C514.537 32.2472 484.29 2 446.978 2C409.179 2 378.537 32.642 378.537 70.4408V123C378.537 131.284 385.253 138 393.537 138H499.537Z" fill="#3F3D56"/>
<g id="Group 427322607">
<path id="Vector_34" d="M493.853 38.2236C484.601 36.6961 475.863 42.9575 474.336 52.2087C472.823 61.3722 478.953 70.0277 488.06 71.6757L488.016 71.9441L521.518 77.4758L526.608 46.6481C526.934 45.7223 527.189 44.7577 527.354 43.7556C528.882 34.5043 522.621 25.7663 513.369 24.2387C504.118 22.7112 495.38 28.9724 493.853 38.2236Z" fill="#F1DB12"/>
</g>
<g id="Group 427322604">
<path id="Vector_35" d="M383.412 112.299C380.02 103.558 370.184 99.2218 361.442 102.614C352.784 105.974 348.452 115.656 351.667 124.334L351.414 124.433L363.699 156.088L392.827 144.784C393.79 144.593 394.75 144.322 395.697 143.955C404.438 140.562 408.775 130.726 405.382 121.985C401.99 113.243 392.154 108.907 383.412 112.299Z" fill="#F1DB12"/>
</g>
<g id="Group 427322608">
<path id="Vector_36" d="M647.492 225.656C638.328 223.669 629.289 229.488 627.303 238.651C625.335 247.728 631.027 256.678 640.041 258.778L639.983 259.044L673.168 266.237L679.787 235.701C680.159 234.793 680.462 233.842 680.677 232.85C682.663 223.686 676.845 214.647 667.681 212.66C658.518 210.674 649.479 216.492 647.492 225.656Z" fill="#F1DB12"/>
</g>
<g id="Group 427322609">
<path id="Vector_37" d="M78.5157 469.653C76.4498 469.783 75.308 467.216 76.871 465.72L77.0265 465.102C77.0061 465.052 76.9855 465.003 76.9648 464.954C74.8755 459.972 67.7948 460.006 65.7234 464.995C63.8848 469.423 61.5439 473.859 60.9676 478.541C60.7092 480.608 60.8255 482.714 61.2841 484.742C56.976 475.331 54.7089 465.055 54.7089 454.721C54.7089 452.124 54.851 449.528 55.1417 446.938C55.3807 444.819 55.7101 442.714 56.1364 440.628C58.4421 429.351 63.4349 418.609 70.6365 409.638C74.0985 407.746 76.9856 404.787 78.7294 401.242C79.3559 399.963 79.8468 398.587 80.0794 397.185C79.6854 397.237 78.5938 391.237 78.8909 390.869C78.3419 390.035 77.3592 389.621 76.7595 388.808C73.7772 384.765 69.6683 385.471 67.5233 390.965C62.941 393.278 62.8967 397.114 65.7083 400.802C67.4971 403.149 67.7429 406.325 69.3124 408.837C69.1509 409.044 68.983 409.244 68.8215 409.451C65.8605 413.249 63.2994 417.331 61.1405 421.619C61.7506 416.853 60.8498 411.111 59.3141 407.41C57.5659 403.192 54.2892 399.641 51.4036 395.995C47.9376 391.615 40.8302 393.527 40.2196 399.078C40.2137 399.132 40.2079 399.185 40.2023 399.239C40.6309 399.481 41.0508 399.738 41.4609 400.009C43.8004 401.556 42.9919 405.183 40.2199 405.611L40.1571 405.621C40.3121 407.164 40.5769 408.695 40.9644 410.2C37.2626 424.516 45.2545 429.73 56.6659 429.964C56.9178 430.093 57.1633 430.222 57.4152 430.345C56.259 433.6 55.3354 436.94 54.6508 440.324C54.0372 443.315 53.6109 446.337 53.3719 449.373C53.0748 453.203 53.1006 457.053 53.4236 460.876L53.4042 460.741C52.584 456.529 50.2975 452.596 46.9776 449.87C42.032 445.808 35.0448 444.312 29.7094 441.046C27.141 439.474 23.8499 441.506 24.2982 444.483L24.32 444.626C25.1144 444.949 25.8894 445.323 26.6387 445.743C27.0673 445.985 27.4872 446.242 27.8973 446.513C30.2368 448.06 29.4283 451.687 26.6563 452.115L26.5934 452.124C26.5482 452.131 26.5095 452.137 26.4643 452.144C27.8271 455.38 29.726 458.383 32.1029 460.973C34.4175 473.47 44.3589 474.656 54.9931 471.017H54.9996C56.1622 476.08 57.8608 481.028 60.044 485.743H78.0642C78.1288 485.543 78.1869 485.336 78.245 485.136C76.5786 485.239 74.8994 485.142 73.2588 484.839C74.5958 483.198 75.9327 481.545 77.2697 479.904C77.302 479.872 77.3279 479.84 77.3537 479.807C78.0319 478.968 78.7165 478.134 79.3947 477.295L79.3951 477.294C79.4375 474.716 79.1279 472.147 78.5157 469.653Z" fill="#4B92FC"/>
</g>
<path id="b-325" d="M1.24701 487.44H747.528C748.217 487.44 748.775 486.882 748.775 486.193C748.775 485.504 748.217 484.946 747.528 484.946H1.24701C0.55832 484.946 0 485.504 0 486.193C0 486.882 0.55832 487.44 1.24701 487.44Z" fill="#E6E6E6"/>
</g>
<defs>
<clipPath id="clip0_298_102">
<rect width="748.775" height="487.44" fill="white"/>
</clipPath>
</defs>
</svg>
