<?xml version="1.0"?>
    <svg width="636" height="324" xmlns="http://www.w3.org/2000/svg" xmlns:svg="http://www.w3.org/2000/svg">
    <defs>
    <linearGradient id="paint1_linear" x1="0.5" x2="0.5" y1="0.24" y2="0.93">
    <stop/>
    <stop offset="1" stop-opacity="0"/>
    </linearGradient>
    <linearGradient id="paint2_linear" x1="0.5" x2="0.5" y1="0.15" y2="1.16">
    <stop stop-color="white"/>
    <stop offset="1" stop-color="white" stop-opacity="0"/>
    </linearGradient>
    <linearGradient id="paint3_linear" x1="0.49" x2="0.5" y1="-0.38" y2="1.31">
    <stop stop-color="white"/>
    <stop offset="1" stop-color="white" stop-opacity="0"/>
    </linearGradient>
    <linearGradient id="paint10_linear" x1="0.52" x2="0.49" y1="1.45" y2="-0.63">
    <stop stop-color="#FECBA6"/>
    <stop offset="1" stop-color="#D17878"/>
    </linearGradient>
    <linearGradient id="paint11_linear" x1="1.33" x2="0.19" y1="1.43" y2="0.4">
    <stop stop-color="white"/>
    <stop offset="1" stop-color="white" stop-opacity="0"/>
    </linearGradient>
    <linearGradient id="paint12_linear" x1="0.06" x2="1.28" y1="1.22" y2="-0.62">
    <stop stop-color="#FECBA6"/>
    <stop offset="1" stop-color="#D17878"/>
    </linearGradient>
    <linearGradient id="paint13_linear" x1="0.46" x2="0.52" y1="0.9" y2="-0.09">
    <stop stop-color="#FECBA6"/>
    <stop offset="1" stop-color="#D17878"/>
    </linearGradient>
    <linearGradient id="paint14_linear" x1="0.14" x2="0.81" y1="0.41" y2="0.56">
    <stop stop-color="#FECBA6"/>
    <stop offset="1" stop-color="#D17878"/>
    </linearGradient>
    <linearGradient id="paint15_linear" x1="0.23" x2="0.65" y1="2.65" y2="-1.22">
    <stop stop-color="#FECBA6"/>
    <stop offset="1" stop-color="#D17878"/>
    </linearGradient>
    <linearGradient id="paint16_linear" x1="0.54" x2="0.2" y1="0.07" y2="1.42">
    <stop stop-color="#FECBA6"/>
    <stop offset="1" stop-color="#D17878"/>
    </linearGradient>
    <linearGradient id="paint17_linear" x1="-0.33" x2="0.81" y1="1.43" y2="0.4">
    <stop stop-color="white"/>
    <stop offset="1" stop-color="white" stop-opacity="0"/>
    </linearGradient>
    <linearGradient id="paint18_linear" x1="1.45" x2="-0.19" y1="0.18" y2="0.73">
    <stop stop-color="#FECBA6"/>
    <stop offset="1" stop-color="#D17878"/>
    </linearGradient>
    </defs>
    <g class="layer">
    <title>Layer 1</title>
    <g id="OBJECTS">
    <g id="Group">
        <path d="m100.3,257.2c0,0 9.8,17.4 80.5,25.3c70.7,7.9 106.4,34.4 151.3,42.3c44.9,7.9 100.5,-44.3 148.7,-36.3c48.2,7.9 106.4,-22.3 111,-31.3l-491.5,0z" fill="#ffd700" id="Vector"/>
        <path d="m610.9,251.7l-10.5,0l-460.6,0.1c0,0 -4.7,-3.7 -11.9,-10c-3.1,-2.7 -6.7,-5.9 -10.6,-9.5c-1.4,-1.3 -2.9,-2.7 -4.4,-4.1c-13.7,-12.9 -30.3,-30 -43.8,-48.1c-14.2,-19.1 -25,-39.5 -25.3,-57.5c0,-0.4 0,-0.8 0,-1.2c0.2,-17.4 3.6,-36.3 12.1,-53.7c5,-10.2 11.6,-19.9 20.4,-28.7c22.8,-22.8 59.8,-38.7 117.2,-38.2c66.9,0.5 136.3,25.5 199,60c13.1,7.2 25.9,14.9 38.4,22.8c9.2,5.9 18.2,11.9 26.9,18c24.3,17 46.8,34.8 66.7,52.2c45.1,39.3 76.8,76.6 86.4,97.9z" fill="#c7d1e8" id="Vector_2"/>
        <path d="m610.9,251.7l-10.5,0l-460.6,0.1c0,0 -4.7,-3.7 -11.9,-10c-3.1,-2.7 -6.7,-5.9 -10.6,-9.5c-1.4,-1.3 -2.9,-2.7 -4.4,-4.1c-13.7,-12.9 -30.3,-30 -43.8,-48.1c-14.2,-19.1 -25,-39.5 -25.3,-57.5c5.7,-3 19.1,-9.1 30.2,-6.3c14.5,3.6 17.6,20.9 17.6,20.9c0,0 10.4,-8.4 21.3,-4.4c10.9,4 12.6,15.6 12.6,15.6c0,0 12.9,-6.6 24.4,-3.8c11.6,2.8 20.9,14 8.5,21.3c-12.3,7.2 -26.1,1.6 -26.5,1.5c0.2,0.2 5,6.8 -3.8,14.8c-9,8.2 25.5,15.3 25.5,15.3c0,0 1.3,-22.4 24.4,-19.9c23.1,2.5 41.8,15 41.8,15c0,0 1.2,-34.3 19.7,-40.6c18.5,-6.3 28,13.9 28,13.9c0,0 41,-26.5 54.9,-1.8c13.9,24.7 14.5,29.4 14.5,29.4c0,0 11.9,-65 49.1,-62c37.2,3 44.1,28.8 43.5,31.4c-0.6,2.6 10.7,-16.7 21.9,-6.2c11.2,10.5 17.7,25.1 17.7,25.1l58.9,-6.9c0,0 -6,-11.6 -3.6,-21.1c45.2,39.3 76.9,76.6 86.5,97.9z" fill="url(#paint1_linear)" id="Vector_3" opacity="0.45"/>
        <path d="m431.9,83.6l-174.1,0c21.8,0 26.1,-7.9 39,-12.2c0.6,-0.2 1.2,-0.4 1.8,-0.5c12.1,-3.1 22,3.8 29.7,3.5c8.1,-0.3 17,-8.9 26.3,-11.9c3.1,-1 6.4,-0.7 9.7,0.1c6.5,1.5 13.3,4.8 20.2,3.5c6,-1.1 6.5,-3.6 8.9,-5.3c13.2,7.2 26.1,14.8 38.5,22.8z" fill="url(#paint2_linear)" id="Vector_4"/>
        <path d="m205.5,67.7l-149.6,0c4.9,-10 11.4,-19.6 20,-28.3c0.1,-0.1 0.3,-0.3 0.4,-0.4c3.5,-0.7 7.3,-1.2 11.4,-1.4c23.7,-1 28.7,16.9 28.7,16.9c0,0 6.2,-8.3 17.4,-4.3c11.2,4 7.3,8.9 16.2,11.6c1.2,0.3 2.4,0.4 3.7,0.3c8.5,-0.7 19.2,-10 28.7,-6.6c11,3.9 3.9,12.2 23.1,12.2z" fill="url(#paint3_linear)" id="Vector_5"/>
        <path d="m630.8,258.5l-556.3,0c-1.9,0 -3.4,-1.5 -3.4,-3.4c0,-1.9 1.5,-3.4 3.4,-3.4l556.3,0c1.9,0 3.4,1.5 3.4,3.4c0,1.9 -1.5,3.4 -3.4,3.4z" fill="#000000" id="Vector_6"/>
        <path d="m363.4,62.5c-9.9,2.5 -21.1,13.3 -28.4,14.9c-9.1,2 -19.7,-2.6 -30,-5.2c-3.1,-0.8 -5.5,-1.2 -7.4,-1.4c12.1,-3.1 22,3.8 29.7,3.5c8.1,-0.3 17,-8.9 26.3,-11.9c3.2,-1 6.4,-0.7 9.8,0.1z" fill="white" id="Vector_7" opacity="0.25"/>
        <path d="m153.7,62.1c-8.9,4.7 -13.1,-5.9 -20.8,-9.4c-8.9,-4 -15.2,8.5 -17.8,6.3c-2.6,-2.1 -3.8,-11.4 -13.9,-16.2c-5.7,-2.7 -16.8,-3.3 -25.2,-3.3c0.1,-0.1 0.3,-0.3 0.4,-0.4c3.5,-0.7 7.3,-1.2 11.4,-1.4c23.7,-1 28.7,16.9 28.7,16.9c0,0 6.2,-8.3 17.4,-4.3c11.2,4 7.3,8.9 16.2,11.6c1.1,0.2 2.4,0.3 3.6,0.2z" fill="white" id="Vector_8" opacity="0.25"/>
        <path d="m393.9,40.3c0,0 62.5,55.8 87.2,48.2c24.9,-7.6 -130.9,-81.3 -87.2,-48.2z" fill="#353d33" id="Vector_9"/>
        <path d="m34,97c0,0 -21.3,37.4 15.9,76.8c8.6,9.1 9.6,26.1 -7.6,27c-17.2,0.9 -43.9,-41 -43,-74.7c1,-33.7 40.5,-49 34.7,-29.1z" fill="#353d33" id="Vector_10"/>
        <path d="m460,295.7c0,0 -36,7.9 -45.2,20.2c-4.5,6 13.4,5.1 28.7,-1.5c16,-6.9 29.1,-19.5 16.5,-18.7z" fill="#353d33" id="Vector_11"/>
        <path d="m199.2,293.4c0,0 14,-0.3 26.3,4.5c12.3,4.8 15,19.5 2.7,21.3c-12.2,1.8 -40.1,-14.5 -38.5,-21.1c1.2,-5 9.5,-4.7 9.5,-4.7z" fill="#353d33" id="Vector_12" stroke="#353d33" stroke-width="2" transform="matrix(1 0 0 1 0 0)"/>
    </g>
    <path d="m132.3,213.7l-7.9,27.4c-3.1,-2.7 -6.7,-5.9 -10.6,-9.5l-1.7,-3.2c0,0 3,-35.2 -6.9,-49.3c9.5,6.6 14.1,33.3 14.1,33.3l-1.5,2l1.5,0c0,0 2.4,4.5 3.3,11.1c6.1,-31.6 0.2,-46.9 0,-47.4c0.2,0.3 5,6.1 7.8,15.7c2.9,9.8 1.8,15.9 1.8,15.9l-2.4,3.9l2.5,0l0,0.1z" fill="black" id="Vector_13"/>
    <g id="Group_2">
        <g id="Group_3">
        <path d="m372.1,240.6c0,0 2.6,-2.3 4.5,-4.8c0.3,-0.4 0.7,-0.9 0.9,-1.3l1.2,1.4l-0.4,-2.2c0,0 8.1,-2.8 11,-10.6c-1.8,8.5 -5.2,14.9 -9.2,17.8c-1.8,1.3 -3.6,1.9 -5.5,1.8c-6.3,-0.2 -2.5,-2.1 -2.5,-2.1z" fill="#007fff" id="Vector_14"/>
        <g id="Group_4" opacity="0.25">
        <path d="m389.3,223.1c-0.7,2.2 -1.5,4.4 -2.5,6.5c-1,2.1 -2.1,4.1 -3.4,6c-1.3,1.9 -2.9,3.7 -4.8,5c-1.9,1.4 -4.3,2.1 -6.6,2c-0.1,0 -0.2,-0.1 -0.2,-0.2c0,-0.1 0.1,-0.2 0.2,-0.2c2.3,0.2 4.5,-0.5 6.4,-1.8c1.9,-1.3 3.5,-3 4.8,-4.9c1.4,-1.9 2.5,-3.9 3.5,-6c1,-2 1.8,-4.2 2.6,-6.4z" fill="#007fff" id="Vector_15" opacity="0.25"/>
        </g>
        <path d="m372.1,240.6c0,0 2.6,-2.3 4.5,-4.8c0.8,2.4 2.5,4.2 3.5,5.1c-1.8,1.3 -3.6,1.9 -5.5,1.8c-6.3,-0.2 -2.5,-2.1 -2.5,-2.1z" fill="#007fff" id="Vector_16" opacity="0.25"/>
        </g>
        <path d="m309.5,225.2c0,0 -18.6,-17.5 -15.6,-40.8c1.9,10.8 9.8,23.7 9.8,23.7l-1,2.9l3.5,-0.7c0,0 4.4,-26.6 -5.5,-39.5c13.4,13.8 13.2,34.3 13.2,34.3l-2.5,3.8l2.5,1.1c0,0 -2.9,10 5.8,6.1c8.7,-3.8 14.2,-36.9 6.3,-45.3c9.4,8.1 7.9,36 7.9,36.9c0,0.9 -4.1,4.7 -4.1,4.7l3.1,2.3c0,0 -1.9,18.9 -23.4,10.5z" fill="black" id="Vector_17"/>
        <path d="m394.8,250c0,0 -6.5,-6.1 -5.4,-14.2c0.7,3.8 3.4,8.2 3.4,8.2l-0.3,1l1.2,-0.2c0,0 1.5,-9.3 -1.9,-13.7c4.6,4.8 4.6,11.9 4.6,11.9l-0.9,1.3l0.9,0.4c0,0 -1,3.5 2,2.1c3,-1.3 4.9,-12.8 2.2,-15.7c3.3,2.8 2.7,12.5 2.7,12.8c0,0.3 -1.4,1.6 -1.4,1.6l1.1,0.8c-0.1,0.1 -0.7,6.7 -8.2,3.7z" fill="black" id="Vector_18"/>
        <g id="Group_5">
        <path d="m370,241.1l-5.3,0.4c3.8,-3.4 3.2,-6.7 2.7,-8.2c-0.2,-0.5 -0.4,-0.9 -0.4,-0.9l2.5,-0.4l-1.4,-1.9c0,0 4.5,-5.2 6.2,-19c5.3,9.3 3.2,17.7 0.4,23.2c-2.1,4.3 -4.7,6.8 -4.7,6.8z" fill="#FFCA51" id="Vector_19"/>
        <g id="Group_6" opacity="0.25">
        <path d="m374.3,211.1c0.6,2.6 0.9,5.2 1,7.8c0.1,2.6 0.1,5.3 -0.3,7.9c-0.4,2.6 -1,5.2 -2,7.6c-1,2.4 -2.5,4.7 -4.3,6.7c-0.1,0.1 -0.2,0.1 -0.3,0c-0.1,-0.1 -0.1,-0.2 0,-0.3c1.8,-1.9 3.2,-4.1 4.3,-6.5c1,-2.4 1.7,-5 2.1,-7.5c0.4,-2.6 0.5,-5.2 0.4,-7.8c-0.1,-2.7 -0.3,-5.3 -0.9,-7.9z" fill="white" id="Vector_20" opacity="0.25"/>
        </g>
        <path d="m370,241.1l-5.3,0.4c3.8,-3.4 3.2,-6.7 2.7,-8.2c2.8,1.7 5.6,1.5 7.3,1c-2.1,4.3 -4.7,6.8 -4.7,6.8z" fill="black" id="Vector_21" opacity="0.25"/>
        </g>
        <path d="m404.3,251.1l-85.3,0l13.7,-11.1c0,0 18.2,-9.4 25.8,-7.4c7.6,1.9 6.4,8.3 6.4,8.3c0,0 0.5,-0.5 1.2,-1.1c1.7,-1.3 4.9,-3.1 8.1,-1.2c4.6,2.8 3.9,6.4 3.9,6.6c0.1,-0.1 2.9,-2.8 5.2,-2c2.3,0.9 3.2,3.4 3.2,3.4c0,0 3,-4.1 5.5,-2.6c2.5,1.5 4,4.6 4,4.6c0,0 4,-4 8.3,2.5z" fill="#7f7f7f" id="Vector_22"/>
        <path d="m387.9,251.1l-68.8,0l13.7,-11.1c0,0 18.2,-9.4 25.8,-7.4c7.6,1.9 6.4,8.3 6.4,8.3c0,0 0.5,-0.5 1.2,-1.1c0.2,1.4 0.2,2.8 0,4.2c0,0 3.9,-1.5 6.4,0.6c2.5,2.1 1.8,4 1.8,4c0,0 3.4,-2 7.3,0c1.1,0.7 3.6,1.6 6.2,2.5z" fill="black" id="Vector_23" opacity="0.25"/>
    </g>
    <g id="Group_7">
        <path d="m233.3,191.1l0,-93.6l-35.5,0l0,0.3l-42.8,68.8l-18.7,30.1l2.1,21.7l59.4,0l0,32.6l35.5,0l0,-32.6l15.7,0l0,-27.4l-15.7,0l0,0.1zm-35.5,0l-27.6,0l25.4,-43.7l2.2,-3.6l0,47.3z" fill="#000000" id="Vector_24"/>
        <path d="m483.5,191.1l0,-93.6l-35.5,0l0,0.3l-61.5,98.9l2.1,21.7l59.4,0l0,32.6l35.5,0l0,-32.6l15.6,0l0,-27.4l-15.6,0l0,0.1zm-35.5,0l-27.6,0l25.4,-43.7l2.2,-3.6l0,47.3l0,0z" fill="#000000" id="Vector_26"/>
        <path d="m226.7,97.5c-4.8,6.1 -21.1,3.9 -24.7,4.3c-4.2,0.4 -33.1,51.3 -37,57.8c-2.6,4.2 -7.1,6.2 -9.9,7.1l42.8,-68.8l0,-0.3l28.8,0l0,-0.1z" fill="white" id="Vector_27" opacity="0.25"/>
        <path d="m483.5,97.5l0,70.8c-9.1,-7.6 -4.1,-63.4 -5.5,-65.2c-1.5,-2 -20.5,-0.7 -24,-1.8c-2.3,-0.7 -4.2,-2.7 -5.2,-3.9l34.7,0l0,0.1z" fill="white" id="Vector_28" opacity="0.25"/>
        <path d="m325.1,232.4c-28.6,1.3 -25.3,-40 -25.3,-40c0.2,10.5 1.6,18.2 4.3,23.2c2.9,5.3 7.5,8 13.7,8c6,0 10.5,-2.6 13.4,-7.8c2.9,-5.2 4.4,-13.3 4.4,-24.3l0,-38c0,-11 -1.4,-19.3 -4.3,-24.7c-2.9,-5.5 -7.5,-8.2 -13.7,-8.2c0,0 17.7,-2.2 25,24.1c7.2,26.3 11.2,86.4 -17.5,87.7z" fill="black" id="Vector_29" opacity="0.25"/>
    </g>
    <g id="zero">
        <path d="m357.2,110.3c-9.3,-11.3 -22.5,-17 -39.6,-17c-17,0 -30.2,5.6 -39.5,16.9c-9.3,11.3 -14,27.2 -14,48l0,28.1c0,20.6 4.7,36.6 14,47.9c9.4,11.3 22.6,17 39.7,17c16.9,0 30.1,-5.6 39.4,-16.9c9.3,-11.3 14,-27.2 14,-48l0,-28c0,-20.7 -4.7,-36.7 -14,-48zm-57.4,41c0.2,-10.3 1.7,-17.9 4.5,-23c2.8,-5.1 7.2,-7.6 13.3,-7.6c6.3,0 10.8,2.7 13.7,8.2c2.9,5.5 4.3,13.7 4.3,24.7l0,38c-0.1,11 -1.5,19.1 -4.4,24.3c-2.9,5.2 -7.4,7.8 -13.4,7.8c-6.3,0 -10.8,-2.7 -13.7,-8c-2.7,-5 -4.2,-12.8 -4.3,-23.2c0,-0.6 0,-1.3 0,-1.9l0,-39.3l0,0z" fill="#ffd700" id="Vector_25"/>
        <path d="m287.5,110.1c0,0 -11.9,-8.6 -13.2,-22c-1.3,-13.4 13.2,12.9 13.2,12.9c0,0 -2.2,-9.6 0,-16.1c6.3,9.2 4.6,16.7 0,25.2z" fill="#e6c200" id="Vector_30"/>
    </g>
    <g id="Group_8">
        <g id="Group_9">
        <path d="m565.9,241.4l0,3.3c-0.6,-0.1 -2,0 -3.2,0.2c-0.8,0.1 -1.5,0.1 -1.9,0.2l-0.3,-2.8l1.3,-0.2l4.1,-0.7z" fill="url(#paint10_linear)" id="Vector_31"/>
        <g id="handboy">
        <path d="m525.1,188c0,0 0.1,0.3 -0.3,0.7c-0.3,0.3 -0.8,0.6 -1.7,1c-5.4,2.1 -16.5,-3 -22.6,-6.4c-6,-3.4 -23.2,-0.6 -34.8,-2.2c-11.6,-1.6 -16.5,-7.8 -26.9,-10.4c-10.4,-2.6 -49.2,8.6 -51.4,-0.1c-2.2,-8.7 41.4,-93.4 45.2,-87.5c3.7,5.9 16.6,6.3 25.7,11c9.1,4.7 16.8,28 26.9,30.3c1.4,0.3 2.7,0.8 4,1.5c8,4.3 13.8,15 14,23.8c0.2,10.2 14.2,18.4 19.3,23.9c5,5.6 2.6,14.4 2.6,14.4z" fill="url(#paint11_linear)" id="Vector_32"/>
        <path d="m525.1,188c0,0 0.1,0.3 -0.3,0.7c1.8,-11.2 -8.5,-16.5 -18,-24.3c-9.7,-8.1 -5.6,-14.2 -7.6,-22.5c-1.2,-4.9 -6.2,-11.4 -10,-15.9c8,4.3 13.8,15 14,23.8c0.2,10.2 14.2,18.4 19.3,23.9c5,5.5 2.6,14.3 2.6,14.3z" fill="white" id="Vector_33" opacity="0.25"/>
        <path d="m524.9,186.5l-2.6,2.4c-0.4,0.3 -0.2,0.9 0.2,1.1l2.2,0.7l5,5.5c0.2,0.2 0.6,0.3 0.8,0l0.8,-0.8c0.2,-0.2 0.3,-0.6 0,-0.8l-5,-5.5l-0.5,-2.2c0,-0.6 -0.6,-0.8 -0.9,-0.4z" fill="#2F1829" id="Vector_34"/>
        <path d="m544.7,190c-0.7,0.9 -1.5,2 -2.4,3.1c-0.3,0.4 -0.7,0.8 -1,1.2c-1.4,1.7 -2.6,3.1 -3,3.2c-1,0.2 -6.6,-3 -7.4,-3c-0.8,0 -2.7,1.4 -3.2,1.2c-0.5,-0.1 -3.2,-2.6 -3.1,-3.3c0.1,-0.6 2.5,-2.8 3.7,-3.1c0.3,-0.1 1.1,0 2,0.2l0.1,0c2.3,0.5 5.7,1.6 6.2,1.3c0.3,-0.1 0.8,-1 1.4,-2.1c0.2,-0.4 0.4,-0.8 0.6,-1.2c0.3,-0.5 0.5,-1 0.8,-1.5c0.2,-0.5 0.4,-0.9 0.6,-1.2c0.5,0.8 1.3,1.8 2.2,2.7c1,1.3 2,2.3 2.5,2.5z" fill="url(#paint12_linear)" id="Vector_35"/>
        </g>
        <path d="m567.4,196.6c0,1.8 0,3.6 -0.1,5c-0.4,5.7 -0.9,10.3 -2.8,10.4c-1.9,0.1 -2.3,-15.3 -2.2,-16.2c0,-0.2 0,-0.6 0.1,-1.1c0.1,-1.7 0.1,-4.7 0.1,-6c0,-0.3 0,-0.5 0,-0.6l0.4,-0.2l4.2,-2.7c0,0 0.2,3.6 0.4,7.8c0,0.6 0,1.1 0,1.7c-0.1,0.6 -0.1,1.2 -0.1,1.9z" fill="url(#paint13_linear)" id="Vector_36"/>
        <path d="m567.4,196.6c-1,0.8 -2.6,1.9 -4.2,2c-2.6,0.1 1.2,-5.4 2.1,-5.5c0.3,0 1.1,-0.1 2,-0.1c0,0.6 0,1.1 0,1.7c0.1,0.6 0.1,1.2 0.1,1.9z" fill="black" id="Vector_37" opacity="0.25"/>
        <path d="m567.4,194.7c-1.1,0.4 -2.5,0.6 -4.4,0.2c-0.3,-0.1 -0.5,-0.1 -0.7,-0.3c-1.6,-0.9 -1,-3.6 0.1,-6c0.1,-0.3 0.3,-0.6 0.4,-0.8l4.2,-2.7c0,0 0.3,4.7 0.4,9.6z" fill="#2F1829" id="Vector_38"/>
        <path d="m558.5,164.2c-0.1,0.6 -0.3,1.3 -0.8,2c-0.5,0.9 -1.3,1.8 -2,2.4c-0.6,0.4 -1.1,0.7 -1.5,0.7c-1.3,-0.2 -3,-2.4 -3.1,-2.8c0,-0.4 1.4,-0.6 1.3,-1.8c-0.2,-1.2 -1,-1.4 -1.5,-1.2c-0.6,0.2 -1.3,1.5 -1.3,2.7c-0.4,-0.1 -1.1,-1.5 -2.5,-2.4c-0.4,-0.2 -0.8,-0.4 -1.3,-0.5c-0.6,-0.1 -1.3,-0.1 -2.1,0.2c-0.4,-4.4 2.3,-6.3 4.3,-5.5c0,0 -0.7,-1.5 -1.8,-1.8c2.5,0.4 3.1,2.5 3.1,2.5c0,0 0.7,-2.9 3.8,-3.3c3.1,-0.4 3.7,3.7 3.7,3.7c0,0 0.7,-2 0.4,-3.2c0.6,1.6 -0.1,4.3 -0.1,4.3c0,0 1.5,0.4 1.9,2.4c-1.3,-1 -1.3,-0.9 -1.3,-0.9c0,0 0.9,0.6 0.8,2.5z" fill="#2F172B" id="Vector_39"/>
        <path d="m555.7,168.5c-0.2,0.7 -0.5,1.3 -0.6,1.6c-0.3,0.6 -3.5,3.3 -5.8,0.2c-1.9,-2.6 -2.2,-5.6 -2.2,-6.5c1.4,0.8 2.1,2.3 2.5,2.4c0,-1.2 0.7,-2.4 1.3,-2.7c0.6,-0.2 1.3,0 1.5,1.2c0.2,1.2 -1.3,1.4 -1.3,1.8c0,0.4 1.7,2.6 3.1,2.8c0.4,-0.1 0.9,-0.3 1.5,-0.8z" fill="url(#paint14_linear)" id="Vector_40"/>
        <path d="m557.3,155.6c-0.1,-0.2 -0.1,-0.3 -0.2,-0.4c0.1,0.1 0.1,0.3 0.2,0.4z" fill="#2F172B" id="Vector_41"/>
        <path d="m568.4,183.6c-0.3,0.6 -0.7,1.1 -1,1.6c-0.1,0.1 -0.2,0.3 -0.3,0.4c-1,1.2 -1.9,1.9 -1.9,1.9c0,0 0,0 0,0.1c0,0.1 0,0.2 0.1,0.4c0.1,0.4 0.2,1.1 0.3,2c0,0.1 0,0.3 0.1,0.4c0.1,0.4 0.1,0.8 0.1,1.2c0,0.2 0.1,0.5 0.1,0.7c0,0.1 0,0.3 0,0.4c0.1,0.7 0.1,1.3 0.1,2c0,0.1 0,0.3 0,0.4c0,0.8 -0.1,1.5 -0.2,2c0,0.2 -0.1,0.3 -0.1,0.4c-0.1,0.2 -0.1,0.3 -0.2,0.4c-0.1,0.1 -0.3,0.2 -0.5,0.3c-1.5,0.7 -5.3,0.7 -9.2,0.5c-3.3,-0.2 -6.6,-0.5 -8.3,-0.8c-0.5,-0.1 -0.9,-0.2 -1.2,-0.4c-0.2,-0.1 -0.4,-0.3 -0.5,-0.4c-0.1,-0.1 -0.2,-0.2 -0.2,-0.3c-0.3,-0.5 -0.4,-1 -0.4,-1.7c0,-0.1 0,-0.3 0,-0.4c0.1,-0.6 0.2,-1.2 0.3,-1.9l0,-0.1c0,-0.1 0.1,-0.3 0.1,-0.4c0.2,-0.7 0.4,-1.3 0.5,-2c0,-0.1 0,-0.2 0.1,-0.3l0,-0.1c0.2,-0.8 0.3,-1.5 0.3,-2c0,-0.2 0,-0.3 0.1,-0.4c0.1,-1.3 0,-1.7 0,-1.7c0,0 -0.3,0.8 -0.8,1.7c-0.1,0.1 -0.2,0.3 -0.2,0.4c-0.3,0.5 -0.7,1 -0.9,1c0,0 -0.1,0 -0.2,0c-0.3,-0.1 -0.7,-0.5 -1.2,-1c-0.1,-0.1 -0.3,-0.3 -0.4,-0.4c-0.3,-0.3 -0.6,-0.6 -0.9,-1c-0.3,-0.3 -0.6,-0.7 -0.9,-1c-0.1,-0.1 -0.2,-0.3 -0.3,-0.4c-0.4,-0.5 -0.7,-0.9 -1,-1.3c-0.2,-0.3 -0.3,-0.5 -0.4,-0.7c-0.1,-0.1 -0.1,-0.2 -0.1,-0.3l0,-0.1c0.1,-0.3 0.3,-1.1 0.6,-2c0.1,-0.1 0.1,-0.3 0.2,-0.4c0.2,-0.6 0.5,-1.3 0.9,-2c0.1,-0.1 0.1,-0.3 0.2,-0.4c0.3,-0.6 0.7,-1.3 1,-2c0.1,-0.1 0.2,-0.3 0.2,-0.4c0.4,-0.7 0.8,-1.4 1.2,-2c0.1,-0.1 0.2,-0.3 0.3,-0.4c0.6,-0.8 1.1,-1.5 1.7,-2c0.2,-0.2 0.3,-0.3 0.5,-0.4c0.1,-0.1 0.2,-0.1 0.3,-0.2c0.8,-0.5 1.6,-0.9 2.4,-1.2c2.7,-1 5,-0.9 5,-0.9c1.3,0 2.6,0.3 3.9,0.8c0.9,0.4 1.8,0.9 2.7,1.5c0.2,0.1 0.4,0.3 0.6,0.4c0.7,0.6 1.4,1.2 2,2c0.1,0.1 0.2,0.3 0.4,0.4c0.5,0.6 1,1.3 1.4,2c0.1,0.1 0.2,0.3 0.3,0.4c0.4,0.6 0.7,1.3 1.1,2c0.1,0.1 0.1,0.3 0.2,0.4c0.3,0.6 0.6,1.3 0.9,2c0.1,0.1 0.1,0.3 0.2,0.4c0.2,0.6 0.5,1.3 0.7,2c0,0.1 0.1,0.3 0.1,0.4c0.1,0.2 0.1,0.4 0.1,0.5z" fill="#1875ff" id="Vector_42"/>
        <g id="Group_10">
        <path d="m561.2,172.2l-15.3,0c0.2,-0.2 0.3,-0.3 0.5,-0.4l14.2,0c0.2,0.1 0.4,0.2 0.6,0.4z" fill="white" id="Vector_43" opacity="0.25"/>
        <path d="m563.6,174.6l-19.6,0c0.1,-0.1 0.2,-0.3 0.3,-0.4l19,0c0,0.1 0.1,0.2 0.3,0.4z" fill="white" id="Vector_44" opacity="0.25"/>
        <path d="m565.2,177l-22.8,0c0.1,-0.1 0.2,-0.3 0.2,-0.4l22.4,0c0.1,0.1 0.1,0.2 0.2,0.4z" fill="white" id="Vector_45" opacity="0.25"/>
        <path d="m566.5,179.4l-25.3,0c0.1,-0.1 0.1,-0.3 0.2,-0.4l24.9,0c0.1,0.1 0.1,0.2 0.2,0.4z" fill="white" id="Vector_46" opacity="0.25"/>
        <path d="m567.5,181.8l-27.3,0c0.1,-0.1 0.1,-0.3 0.2,-0.4l27,0c0,0.1 0.1,0.3 0.1,0.4z" fill="white" id="Vector_47" opacity="0.25"/>
        <path d="m568.3,184.2l-28.7,0c-0.1,-0.1 -0.1,-0.2 -0.1,-0.3l0,-0.1l28.7,0c0,0.1 0.1,0.2 0.1,0.4z" fill="white" id="Vector_48" opacity="0.25"/>
        <path d="m567.4,186.2c-0.1,0.1 -0.2,0.3 -0.3,0.4l-25.7,0c-0.1,-0.1 -0.2,-0.3 -0.3,-0.4l26.3,0z" fill="white" id="Vector_49" opacity="0.25"/>
        <path d="m543.1,188.6l2.9,0c-0.1,0.1 -0.2,0.3 -0.2,0.4l-2.3,0c-0.1,-0.1 -0.2,-0.3 -0.4,-0.4z" fill="white" id="Vector_50" opacity="0.25"/>
        <path d="m565.3,189l-18.6,0c0,-0.2 0,-0.3 0.1,-0.4l18.5,0c0,0.1 0,0.2 0,0.4z" fill="white" id="Vector_51" opacity="0.25"/>
        <path d="m565.7,191.4l-19.4,0c0,-0.1 0,-0.2 0.1,-0.3l0,-0.1l19.3,0c0,0.1 0,0.3 0,0.4z" fill="white" id="Vector_52" opacity="0.25"/>
        <path d="m566,193.8l-20.3,0c0,-0.1 0.1,-0.3 0.1,-0.4l20.2,0c-0.1,0.2 0,0.3 0,0.4z" fill="white" id="Vector_53" opacity="0.25"/>
        <path d="m566.1,195.8c0,0.1 0,0.3 0,0.4l-20.8,0c0,-0.1 0,-0.3 0,-0.4l20.8,0z" fill="white" id="Vector_54" opacity="0.25"/>
        <path d="m565.9,198.2c0,0.2 -0.1,0.3 -0.1,0.4l-19.3,0c-0.2,-0.1 -0.4,-0.3 -0.5,-0.4l19.9,0z" fill="white" id="Vector_55" opacity="0.25"/>
        </g>
        <path d="m566.3,238.7c-0.9,0.6 -7,1.2 -7,1.2l-0.2,-1.1l-1.1,-6.7l-2.7,-15.7l-2.7,19.7l-0.8,5.8c0,0 -7.5,0.4 -7.5,-1.4c0,-0.2 0,-1 0.1,-2.3c0.2,-8 1.1,-34.3 1.3,-40.2c0.3,0.6 1,1 2,1.1c0.1,0 0.2,0 0.3,0c3.8,0.6 14.5,1.5 17.1,0.3c0.1,1 0.2,2.5 0.3,4.4c0.4,7.6 0.7,21.4 0.9,29.1c0,3.5 0,5.8 0,5.8z" fill="#2F1829" id="Vector_56"/>
        <path d="m558,232.1l-2.7,-15.7c0,0 0.7,-6.3 1,-7.1c0.3,-0.7 2.2,-0.2 3,-0.7c0.4,1 -2.3,2.4 -2.5,5.7c-0.1,2.3 0.7,12.4 1.2,17.8z" fill="black" id="Vector_57" opacity="0.25"/>
        <path d="m547.1,201.4c0,0 -0.2,3.6 2.7,5.3" id="Vector_58" opacity="0.25" stroke="white" stroke-linecap="round" stroke-linejoin="round" stroke-miterlimit="10" stroke-width="0.46"/>
        <g id="Group_11" opacity="0.25">
        <g id="Group_12" opacity="0.25">
        <path d="m547.8,206.2l-0.1,0.7" id="Vector_59" opacity="0.25" stroke="white" stroke-linecap="round" stroke-linejoin="round" stroke-width="0.46"/>
        <path d="m547.7,208.2l-1.4,29.8" id="Vector_60" opacity="0.25" stroke="white" stroke-dasharray="1.39 1.39" stroke-linecap="round" stroke-linejoin="round" stroke-width="0.46"/>
        <path d="m546.2,238.7l0,0.7" id="Vector_61" opacity="0.25" stroke="white" stroke-linecap="round" stroke-linejoin="round" stroke-width="0.46"/>
        </g>
        </g>
        <path d="m558,209.6l2.7,28.3" id="Vector_62" opacity="0.25" stroke="white" stroke-dasharray="1.39 1.39" stroke-linecap="round" stroke-linejoin="round" stroke-miterlimit="10" stroke-width="0.46"/>
        <path d="m560.3,201.9c0,0 -0.3,3.5 0,4.1c0.3,0.7 1.6,1.2 1.9,1.4c0.3,0.1 1.5,-1 1.6,-1.7c0.1,-0.7 0.1,-3.7 0.1,-3.7c0,0 -2.2,-0.4 -3.6,-0.1z" id="Vector_63" opacity="0.25" stroke="white" stroke-linecap="round" stroke-linejoin="round" stroke-miterlimit="10" stroke-width="0.46"/>
        <path d="m566.3,238.7c-0.9,0.6 -7,1.2 -7,1.2l-0.2,-1.1c1.8,-1 5.3,-3.2 7.1,-5.9c0.1,3.5 0.1,5.8 0.1,5.8z" fill="black" id="Vector_64" opacity="0.25"/>
        <path d="m566.7,241.3l-0.8,0.1l-5.4,0.8l-0.4,0.1c-0.8,0.1 -1.5,-0.4 -1.7,-1.2l0,-0.1c-0.1,-0.8 0.4,-1.5 1.2,-1.7l6.6,-1c0.8,-0.1 1.5,0.4 1.7,1.2l0,0.1c0.1,0.8 -0.4,1.6 -1.2,1.7z" fill="#4C3146" id="Vector_65"/>
        <path d="m552.7,236l-0.8,5.8c0,0 -7.5,0.4 -7.5,-1.4c0,-0.2 0,-1 0.1,-2.3c1.7,-0.1 5.8,-0.6 8.2,-2.1z" fill="black" id="Vector_66" opacity="0.25"/>
        <path d="m552.5,242.2l0,0.1c-0.1,0.8 -0.8,1.4 -1.6,1.3l-5.7,-0.5l-0.9,-0.1c-0.8,-0.1 -1.4,-0.8 -1.3,-1.6l0,-0.1c0.1,-0.8 0.8,-1.4 1.6,-1.3l6.6,0.6c0.8,0.1 1.4,0.8 1.3,1.6z" fill="#4C3146" id="Vector_67"/>
        <path d="m565.4,203.8c-9.2,1.2 -15.4,-3 -17.5,-4.7c3.8,0.6 14.5,1.5 17.1,0.3c0.2,1 0.3,2.5 0.4,4.4z" fill="black" id="Vector_68" opacity="0.25"/>
        <path d="m546.4,191.1c0.7,-3.3 0.4,-4.2 0.4,-4.2c0,0 -1.2,3 -1.9,3.1c-0.3,0 -1.5,-1.1 -2.7,-2.4c1,-0.3 2.5,-0.8 3.3,-1.7c1.2,-1.4 1.1,-7.4 1.6,-7.4c0.5,0 1.6,11.1 -1.5,15.4c0.3,-0.9 0.6,-1.9 0.8,-2.8z" fill="black" id="Vector_69" opacity="0.25"/>
        <path d="m568.4,184.6c-1.4,2.6 -3.2,3.9 -3.2,3.9c0,0 -1.6,-8.6 -2.1,-9.4c-0.4,-0.7 0.2,-1.3 1.1,1.6c0.7,2.3 2.5,4 4.1,3.6c0.1,0 0.1,0.1 0.1,0.3z" fill="black" id="Vector_70" opacity="0.25"/>
        <path d="m565.5,199.1c-0.1,0.1 -0.3,0.2 -0.5,0.3c-1.5,0.7 -5.3,0.7 -9.2,0.5c2.6,-0.3 8.9,-1.7 10,-7.2c0.3,2.5 0.5,5.5 -0.3,6.4z" fill="black" id="Vector_71" opacity="0.25"/>
        <path d="m558,170.2c-0.3,0.4 -0.9,0.6 -1.9,0.4c-1.9,-0.4 -4.4,0.4 -5.6,0.2c-0.7,-0.1 -1.1,-0.3 -1.4,-0.5c2.7,-1 5,-0.9 5,-0.9c1.3,0 2.6,0.3 3.9,0.8z" fill="black" id="Vector_72" opacity="0.25"/>
        <path d="m544.7,190c-0.7,0.9 -1.5,2 -2.4,3.1c-1.9,-1.1 -3.4,-3.1 -4.3,-4.3c0.8,-1.4 1.6,-3.1 2,-3.9c0.5,0.8 1.3,1.8 2.2,2.7c1,1.2 2,2.2 2.5,2.4z" fill="#2F1829" id="Vector_73"/>
        <path d="m544.7,190c-0.7,0.9 -1.5,2 -2.4,3.1c-0.3,0.4 -0.7,0.8 -1,1.2c0.1,-3.5 -1.1,-6.6 -1.8,-8.2c0.2,-0.5 0.4,-0.9 0.6,-1.2c0.5,0.8 1.3,1.8 2.2,2.7c0.9,1.2 1.9,2.2 2.4,2.4z" fill="black" id="Vector_74" opacity="0.25"/>
        <path d="m538.7,187.6c0,1 -1,2.5 -1.2,2.9c-0.3,0.5 -0.1,2.8 -0.4,2.5c-0.3,-0.3 -0.4,-1.4 -0.8,-1.8c-0.4,-0.3 -5,-1.5 -5.8,-1.7c2.3,0.5 5.7,1.6 6.2,1.3c0.3,-0.1 0.8,-1 1.4,-2.1c0.2,-0.2 0.4,-0.6 0.6,-1.1z" fill="white" id="Vector_75" opacity="0.25"/>
        <path d="m557.7,166.2c-0.5,0.9 -1.3,1.8 -2,2.4c-0.6,0.4 -1.1,0.7 -1.5,0.7c-1.3,-0.2 -3,-2.4 -3.1,-2.8c0,-0.4 1.4,-0.6 1.3,-1.8c-0.2,-1.2 -1,-1.4 -1.5,-1.2c-0.6,0.2 -1.3,1.5 -1.3,2.7c-0.4,-0.1 -1.1,-1.5 -2.5,-2.4c-0.4,-0.2 -0.8,-0.4 -1.3,-0.5c0.7,-0.1 1.6,-0.1 2.1,0.1c1.2,0.5 1.3,1 1.3,1c0,0 0.2,-1.8 2.2,-2.2c1.7,-0.3 3,4.3 6.3,4z" fill="black" id="Vector_76" opacity="0.25"/>
        <path d="m551.9,251.1l-13.1,0c0,0 -0.1,-0.4 -0.1,-0.9c0,-0.7 0.2,-1.6 1.3,-2c0.4,-0.2 0.8,-0.3 1.2,-0.5c1.6,-0.8 3.4,-1.8 3.7,-2.4c0,0 0.1,0 0.3,0.1c0.3,0.1 0.9,0.4 1.6,0.6c0.3,0.1 0.6,0.1 0.9,0.1c0.7,0 2.2,-0.4 3.1,-0.5c0.4,-0.1 0.7,-0.1 0.8,0.1c0.2,0.3 0.4,3 0.5,4.5c-0.3,0.5 -0.2,0.9 -0.2,0.9z" fill="#1F3247" id="Vector_77"/>
        <path d="m550.9,243.6c-0.1,0.6 -0.2,1.3 -0.4,1.9c-0.7,0.1 -1.6,0.3 -2.3,0.4c-0.3,0 -0.5,0.1 -0.7,0.1c-0.8,0 -1.9,-0.5 -2.4,-0.7c0,-0.7 0.1,-1.6 0.1,-2.3l2.3,0.2l3.4,0.4z" fill="url(#paint15_linear)" id="Vector_78"/>
        <path d="m567.6,251.1l-7.9,0c0,0 -0.1,-0.4 -0.1,-0.9c0,-0.4 0.1,-0.8 0.3,-1.3c0.6,-1.3 0.3,-3.3 0.5,-3.7c0,0 0.1,0 0.4,0c1.1,-0.1 4.2,-0.4 5.1,-0.4c0.1,0 0.1,0 0.2,0c0.5,0.2 1.1,3.6 1.4,5.4c0.1,0.4 0.1,0.7 0.1,0.9z" fill="#1F3247" id="Vector_79"/>
        <path d="m551.8,250.1c0,0.6 0.1,0.9 0.1,0.9l-13.1,0c0,0 -0.1,-0.4 -0.1,-0.9l13.1,0z" fill="black" id="Vector_80" opacity="0.25"/>
        <path d="m567.6,251.1l-7.9,0c0,0 -0.1,-0.4 -0.1,-0.9l7.9,0c0.1,0.4 0.1,0.7 0.1,0.9z" fill="black" id="Vector_81" opacity="0.25"/>
        <path d="m546.6,245.9c-1.2,0.8 -3.5,2.2 -4.3,2.2c-0.6,0 -1,-0.3 -1.3,-0.5c1.6,-0.8 3.4,-1.8 3.7,-2.4c0,0 0.1,0 0.3,0.1c0.4,0.2 1,0.4 1.6,0.6z" fill="#122230" id="Vector_82"/>
        <path d="m550.9,243.6c-0.1,0.6 -0.2,1.3 -0.4,1.9c-0.7,0.1 -1.6,0.3 -2.3,0.4l-0.8,-2.7l3.5,0.4z" fill="black" id="Vector_83" opacity="0.25"/>
        <path d="m565.9,241.4l0,3.3c-0.6,-0.1 -2,0 -3.2,0.2l-0.9,-2.8l4.1,-0.7z" fill="black" id="Vector_84" opacity="0.25"/>
        </g>
    </g>
    <g id="Group_13">
        <g id="Group_14">
        <path d="m94.3,163.3c0,0 -0.1,1 -0.2,2.2c-0.2,1.6 -0.6,3.7 -1.3,4.7c0,0 0,0.1 -0.1,0.1c-1.1,1.4 -3.1,1.1 -4.1,-0.7c0.6,-0.8 0.9,-1.7 0.5,-2.1c-0.8,-0.8 -0.6,-3.1 0.6,-2.8c1.2,0.3 1.4,3.5 1.8,3.4c0.3,0.1 2.1,-2.8 2.8,-4.8z" fill="url(#paint16_linear)" id="Vector_85"/>
        <path d="m94.7,161.9c0,0.3 -0.1,0.8 -0.3,1.4c-0.1,0.3 -0.3,0.7 -0.4,1c-0.8,1.8 -2.1,3.8 -2.4,3.9c-0.4,0.1 -0.6,-3.2 -1.8,-3.4c-1.2,-0.3 -1.4,2 -0.6,2.8c0.4,0.4 0.1,1.3 -0.5,2.1c-0.7,0.8 -1.7,1.4 -2.8,0.7c-2,-1.2 -2.4,-9 -2.4,-9.6c0,0 0,-0.5 0.1,-1.2c0.2,-1 0.9,-2.2 2.6,-3c3,-1.3 8.5,-1 8.5,5.3z" fill="#2F1829" id="Vector_86"/>
        <path d="m110.4,194.3c0,0.1 0,0.2 -0.1,0.2c-0.1,0.4 -0.2,0.6 -0.3,0.6c-0.1,0 -0.7,0 -1.6,-0.1c-1.2,-0.2 -3,-0.4 -4.6,-0.7c-2,-0.4 -3.8,-0.8 -4.4,-1.1c-0.5,-0.3 -1.3,-1.3 -2.1,-2.5c-0.2,-0.3 -0.4,-0.6 -0.6,-1c-1,-1.6 -1.8,-3.2 -2,-3.6c0,-0.1 -0.1,-0.1 -0.1,-0.1c0,0 0,0 0,0.1c0,0.4 -0.2,2 -0.7,3.6c-0.1,0.3 -0.2,0.7 -0.4,1c-0.1,0.3 -0.3,0.6 -0.5,0.8c-0.5,0.8 -0.4,1.8 -0.1,2.8c0,0.1 0.1,0.2 0.1,0.4c0.1,0.2 0.2,0.4 0.3,0.6c0.2,0.4 0.3,0.7 0.5,1c0.5,1 0.9,1.9 0.8,2.4c0,0.1 -0.1,0.1 -0.2,0.2c-0.1,0.1 -0.1,0.1 -0.2,0.2c-0.3,0.2 -0.9,0.5 -1.6,0.8c-3.9,1.6 -12.7,3.5 -16.5,0c-0.1,-0.1 -0.1,-0.1 -0.2,-0.2c-0.2,-0.3 -0.3,-0.5 -0.3,-0.8c0,-0.4 0.2,-0.7 0.5,-1.2c0.4,-0.7 1.1,-1.4 1.6,-2.5c0.2,-0.3 0.3,-0.6 0.4,-1c0.2,-0.5 0.4,-1.1 0.4,-1.8c0.1,-0.6 0.1,-1.3 0.2,-1.9c0,-0.3 0.1,-0.7 0.1,-1c0.1,-1.3 0.1,-2.5 0.1,-3.6c0,-0.3 0,-0.7 0,-1c0,-1.3 -0.1,-2.5 -0.1,-3.6c0,-0.3 0,-0.7 0,-1c0,-1.3 0,-2.5 0.1,-3.6c0,-0.3 0.1,-0.7 0.1,-1c0.3,-1.5 0.9,-2.7 2,-3.6l0.1,-0.1c0.4,-0.3 0.8,-0.6 1.1,-0.9c0.4,-0.3 0.8,-0.5 1.1,-0.8c2.4,-1.4 3.6,-1.2 3.6,-1.2c0,0 0.7,0 1.8,0.2c1.1,0.2 2.4,0.5 3.8,1c0.2,0.1 0.3,0.1 0.5,0.2c0.4,0.2 0.7,0.3 1.1,0.5c0.2,0.1 0.5,0.3 0.7,0.4c0.3,0.2 0.6,0.4 0.8,0.6c0.7,0.5 1.2,1.1 1.7,1.8c0.3,0.5 0.7,1.2 1,1.8c0.2,0.3 0.3,0.6 0.5,1c0.5,1.2 1.1,2.4 1.6,3.6c0.1,0.3 0.3,0.7 0.4,1c0.5,1.3 1,2.6 1.3,3.6c0.1,0.3 0.2,0.7 0.3,1c0.4,1.1 0.6,1.8 0.7,2.1c0.1,0.4 1,0.8 2.1,1.2c0.4,0.1 0.7,0.2 1.1,0.3c0.8,0.2 1.5,0.4 2.2,0.6c0.5,0.1 1,0.3 1.4,0.4c0.4,0.1 0.6,0.2 0.7,0.3c0,0 0,0.1 0.1,0.2c0,0.9 -0.1,2.4 -0.3,3.4z" fill="#1875ff" id="Vector_87"/>
        <g id="Group_15" opacity="0.25">
        <g id="Group_16" opacity="0.25">
        <path d="m94.1,171.4c0.3,0.2 0.6,0.3 0.9,0.5l-13.3,0c0.2,-0.2 0.5,-0.4 0.7,-0.5l11.7,0zm0,-0.2l-11.9,0c-0.4,0.3 -0.7,0.5 -1.1,0.9l-0.1,0.1l14.7,0c-0.5,-0.4 -1,-0.7 -1.6,-1z" fill="white" id="Vector_88" opacity="0.25"/>
        </g>
        <g id="Group_17" opacity="0.25">
        <path d="m98.1,176.1c0.1,0.2 0.2,0.3 0.3,0.5l-19.3,0c0,-0.2 0.1,-0.4 0.1,-0.5l18.9,0zm0.2,-0.3l-19.3,0c-0.1,0.3 -0.1,0.6 -0.1,1l19.9,0c-0.2,-0.3 -0.4,-0.7 -0.5,-1z" fill="white" id="Vector_89" opacity="0.25"/>
        </g>
        <g id="Group_18" opacity="0.25">
        <path d="m100.2,180.7c0.1,0.2 0.1,0.3 0.2,0.5l-21.3,0c0,-0.2 0,-0.3 0,-0.5l21.1,0zm0.1,-0.2l-21.5,0c0,0.3 0,0.6 0,1l21.9,0c-0.1,-0.4 -0.3,-0.7 -0.4,-1z" fill="white" id="Vector_90" opacity="0.25"/>
        </g>
        <g id="Group_19" opacity="0.25">
        <path d="m101.9,185.3l0.1,0.4l0.1,0.2l-22.8,0c0,-0.2 0,-0.3 0,-0.5l22.6,0l0,-0.1zm0.1,-0.2l-23,0c0,0.3 0,0.6 0,1l23.4,0c-0.1,-0.3 -0.3,-0.7 -0.4,-1z" fill="white" id="Vector_91" opacity="0.25"/>
        </g>
        <g id="Group_20" opacity="0.25">
        <path d="m93.6,189.9c-0.1,0.2 -0.1,0.4 -0.2,0.5l-14.3,0c0,-0.2 0,-0.3 0,-0.5l14.5,0zm0.3,-0.2l-15,0c0,0.3 0,0.6 -0.1,1l14.7,0c0.2,-0.3 0.3,-0.7 0.4,-1z" fill="white" id="Vector_92" opacity="0.25"/>
        </g>
        <g id="Group_21" opacity="0.25">
        <path d="m106.2,189.9c0.6,0.2 1.2,0.3 1.7,0.5l0.2,0.1l-10.6,0c-0.1,-0.2 -0.2,-0.3 -0.3,-0.5l9,0l0,-0.1zm0,-0.2l-9.5,0c0.2,0.3 0.4,0.7 0.6,1l12.4,0c-0.4,-0.1 -0.8,-0.3 -1.4,-0.4c-0.5,-0.2 -1.3,-0.4 -2.1,-0.6z" fill="white" id="Vector_93" opacity="0.25"/>
        </g>
        <g id="Group_22" opacity="0.25">
        <path d="m92.9,194.6c0,0 0,0.1 0.1,0.1l0,0.1c0,0.1 0.1,0.2 0.1,0.3l-14.9,0c0.1,-0.2 0.2,-0.3 0.2,-0.5l14.5,0l0,0zm0.1,-0.3l-14.8,0c-0.1,0.4 -0.3,0.7 -0.4,1l15.6,0c-0.1,-0.2 -0.2,-0.4 -0.3,-0.6c0,-0.1 0,-0.2 -0.1,-0.4z" fill="white" id="Vector_94" opacity="0.25"/>
        </g>
        <g id="Group_23" opacity="0.25">
        <path d="m110.1,194.6c-0.1,0.3 -0.2,0.4 -0.2,0.4c0,0 0,0 -0.1,0c-0.2,0 -0.7,0 -1.4,-0.1c-0.6,-0.1 -1.2,-0.2 -1.9,-0.3l3.6,0l0,0zm0.3,-0.3l-6.6,0c1.6,0.3 3.4,0.6 4.6,0.7c0.7,0.1 1.2,0.1 1.4,0.1c0.1,0 0.1,0 0.2,0c0.1,0 0.2,-0.3 0.3,-0.6c0.1,0 0.1,-0.1 0.1,-0.2z" fill="white" id="Vector_95" opacity="0.25"/>
        </g>
        <g id="Group_24" opacity="0.25">
        <path d="m93.8,199.2c-0.3,0.2 -0.7,0.3 -1.1,0.5l-16.3,0l-0.1,-0.1l-0.2,0.2l0.1,-0.2c-0.1,-0.1 -0.2,-0.2 -0.2,-0.4l17.8,0zm0.7,-0.2l-18.8,0c0,0.3 0.1,0.5 0.3,0.8c0.1,0.1 0.1,0.1 0.2,0.2l16.5,0c0.7,-0.3 1.2,-0.6 1.6,-0.8c0.1,-0.1 0.1,-0.2 0.2,-0.2z" fill="white" id="Vector_96" opacity="0.25"/>
        </g>
        </g>
        <path d="m95.9,242.3c-0.1,0.2 -0.1,0.4 -0.2,0.5c-1.1,1.9 -4.1,2.1 -5.2,1.7c-0.1,0 -0.3,-0.1 -0.3,-0.2c-0.7,-0.6 -1.2,-5.4 -4.8,-32.6c0,0.1 0,0.1 0,0.2c-0.1,3.9 -0.9,10.7 -1.7,17c-0.9,7 -1.9,13.3 -2.1,14.3c0,0.3 -0.2,0.6 -0.4,0.9c-1,1.1 -3.5,1.4 -5,-0.4c-0.1,-0.1 -0.2,-0.3 -0.3,-0.5c0.6,-5 0.9,-20.4 -0.1,-29.6c-0.4,-3.4 -0.4,-6.4 -0.3,-8.8c0.1,-2.5 0.4,-4.3 0.6,-5.3c3.8,3.8 13,1.8 16.9,0.1c0.6,-0.3 1,-0.5 1.3,-0.7c1,4.6 0.6,17.5 1.6,43.4z" fill="#2F1829" id="Vector_97"/>
        <path d="m93.1,170.7c-6.4,0.2 -8.2,10.1 -8.2,10.1l-1.5,-10.4c2.4,-1.4 3.6,-1.2 3.6,-1.2c0,0 3.1,0.2 6.1,1.5z" fill="black" id="Vector_98" opacity="0.25"/>
        <path d="m103.2,251c0,0 -10.9,0 -12.7,0c-0.1,-0.4 -0.1,-0.9 -0.1,-1.5c0,-0.2 0,-0.4 0,-0.7c0,-1.5 0,-3.3 0.1,-4.2c0.3,0.1 0.7,0.2 1.2,0.1c1,0 2.2,-0.3 3.1,-0.9c0.3,-0.2 0.6,-0.6 0.8,-0.9c0.8,1.7 2.4,2.8 3.9,3.6c1.3,0.7 2.6,1.2 3.1,1.6c0.5,0.4 0.7,0.9 0.7,1.4c0.2,0.7 -0.1,1.5 -0.1,1.5z" fill="#1F3247" id="Vector_99"/>
        <path d="m81.3,249.5c0,1 -0.1,1.5 -0.1,1.5l-7.3,0c0.1,-0.5 0.2,-1 0.3,-1.5c0.6,-2.5 1.5,-4.7 1.9,-5.6c0.5,0.6 1.1,0.9 1.7,1.1c0.7,0.2 1.4,0.2 2.1,0c0.5,-0.2 1,-0.4 1.3,-0.8c0.2,2.1 0.1,4 0.1,5.3z" fill="#1F3247" id="Vector_100"/>
        <path d="m94.7,198.7c0,0.1 -0.2,0.3 -0.4,0.4c-2.3,1.6 -13.9,5 -18.2,0.6c-0.6,-0.6 -0.3,-1.2 0.2,-1.9c0.6,0.5 1.7,1 3.7,1.4c3.9,0.6 10.7,-0.4 14,-2.8c0.4,1 0.8,1.8 0.7,2.3z" fill="black" id="Vector_101" opacity="0.25"/>
        <g id="girllight">
        <path d="m117.8,188c0,0 -2.4,-8.7 2.7,-14.2c5.1,-5.5 19,-13.7 19.3,-23.9c0.3,-10.2 7.9,-23 18,-25.4c10.1,-2.3 17.8,-25.7 26.9,-30.3c9.1,-4.7 22,-5.1 25.7,-11c3.7,-5.9 47.3,78.8 45.2,87.5c-2.2,8.7 -41,-2.5 -51.4,0.1c-10.4,2.6 -15.3,8.8 -26.9,10.4c-11.6,1.6 -28.8,-1.2 -34.8,2.2c-6,3.4 -17.1,8.4 -22.6,6.4c-2.3,-1 -2.1,-1.8 -2.1,-1.8z" fill="url(#paint17_linear)" id="Vector_102"/>
        <path d="m119.9,189.6l-2.5,-2.5c-0.4,-0.4 -1,-0.2 -1.1,0.3l-0.6,2.2l-5.3,5.3c-0.2,0.2 -0.2,0.6 0,0.8l0.8,0.8c0.2,0.2 0.6,0.2 0.8,0l5.3,-5.3l2.2,-0.6c0.6,0 0.8,-0.6 0.4,-1z" fill="#2F1829" id="Vector_103"/>
        <path d="m117.2,192.6c-0.1,0.8 -3,3.3 -3.9,3.1c-0.1,0 -0.3,-0.1 -0.4,-0.2c-0.6,-0.3 -1.3,-0.9 -2.5,-1c0.2,-1 0.3,-2.8 0.2,-3.4c0.2,-0.1 0.4,-0.2 0.6,-0.3c1,-0.4 2.3,-1 2.8,-0.9c0.9,0.3 3.4,1.9 3.2,2.7z" fill="url(#paint18_linear)" id="Vector_104"/>
        <path d="m110.4,194.6c-0.1,0.4 -0.2,0.6 -0.3,0.6c-0.1,0 -0.7,0 -1.6,-0.1c0.6,-2.3 0.2,-4 0,-4.8c1.1,0.3 1.9,0.5 2,0.7c0,0 0,0.1 0.1,0.2c0.1,0.6 0,2.4 -0.2,3.4z" fill="black" id="Vector_105" opacity="0.25"/>
        </g>
        <path d="m93.2,194.7c-1.5,-1.4 -0.8,-2.6 0,-5.4c0.8,-2.9 -0.8,-4.1 -1.1,-7.3c-0.3,-3.2 0.1,-5 2,-7.1c-2.4,6.2 0.6,11.1 0.6,11.1c0,0 -0.1,3.4 -1.6,5.6c-0.6,0.8 -0.4,2 0.1,3.1z" fill="black" id="Vector_106" opacity="0.25"/>
        <path d="m93.9,164.4c-0.8,1.8 -2.1,3.8 -2.4,3.9c-0.4,0.1 -0.6,-3.2 -1.8,-3.4c-1.2,-0.3 -1.4,2 -0.6,2.8c0.4,0.4 0.1,1.3 -0.5,2.1c-0.7,0.8 -1.7,1.4 -2.8,0.7c-2,-1.2 -2.4,-9 -2.4,-9.6c0,0 0,-0.5 0.1,-1.2c1,-0.1 3.3,0.1 3.8,2.1c0.5,2 0.5,2.9 0.5,3.3c0.1,-0.6 0.6,-2.3 2.5,-1.9c1.1,0.1 2.4,0.9 3.6,1.2z" fill="black" id="Vector_107" opacity="0.25"/>
        <g id="hairgirl">
        <path d="m85.6,161.6c0,0 -0.8,-1.7 -3.5,-1.2c-2.6,0.5 -3.8,3.9 -2.6,9.4c0,-4.9 0.7,-6 0.7,-6c0,0 -1.1,3 0.3,9.7c1.4,6.7 2.3,13.2 -1.3,16c7.1,-4 7.6,-8.8 7.1,-14.6c-0.3,-5.8 1,-10.9 -0.7,-13.3z" fill="#2F1829" id="Vector_108"/>
        </g>
        <path d="m89.9,167.5c-0.1,0.4 1.3,2.3 2.8,2.7c0,0 0,0.1 -0.1,0.1c0,0.1 -0.1,0.1 -0.1,0.2c-1.4,-0.5 -2.8,-0.9 -3.8,-1c0.5,-0.7 0.7,-1.5 0.3,-1.9c-0.8,-0.8 -0.6,-3.1 0.6,-2.8c1.2,0.3 1.4,3.5 1.8,3.4c0.3,-0.1 2.1,-2.9 2.8,-4.9c0,0 -0.1,1 -0.2,2.2c-0.4,0.7 -1.3,2.2 -2,2.8c-0.9,0.8 -1.3,-0.2 -1.5,-0.8c-0.1,-0.5 -0.5,-0.5 -0.6,0z" fill="black" id="Vector_109" opacity="0.25"/>
        <path d="m77.5,204.9c0,0 -0.2,3.7 0.3,4.7c0.5,1 1.9,1.7 1.9,1.7c0,0 1.8,-0.8 2.3,-1.9c0.5,-2.2 0.4,-4.9 0.4,-4.9c0,0 -3.6,-0.8 -4.9,0.4z" id="Vector_110" opacity="0.25" stroke="white" stroke-miterlimit="10" stroke-width="0.46"/>
        <path d="m93.2,201.9c0,0 0.2,3.1 -2.5,4.6" id="Vector_111" opacity="0.25" stroke="white" stroke-linecap="round" stroke-linejoin="round" stroke-miterlimit="10" stroke-width="0.46"/>
        <path d="m92.5,204.6l2.2,37" id="Vector_112" opacity="0.25" stroke="white" stroke-linecap="round" stroke-linejoin="round" stroke-miterlimit="10" stroke-width="0.46"/>
        <path d="m85.3,212c-0.1,3.9 -0.9,10.7 -1.7,17.1c-0.1,-7.4 -1.2,-16.5 -0.8,-18c1.1,1 2.5,0.9 2.5,0.9z" fill="black" id="Vector_113" opacity="0.25"/>
        <path d="m83.4,213l-3.1,30.2" id="Vector_114" opacity="0.25" stroke="white" stroke-linecap="round" stroke-linejoin="round" stroke-miterlimit="10" stroke-width="0.46"/>
        <path d="m92.9,199.9c-1.8,1.8 -7.4,6.2 -17.5,5.2c0.1,-2.5 0.4,-4.3 0.6,-5.3c3.8,3.8 13.1,1.7 16.9,0.1z" fill="black" id="Vector_115" opacity="0.25"/>
        <path d="m74.3,249.5l7,0c0,1 -0.1,1.5 -0.1,1.5l-7.3,0c0.1,-0.5 0.2,-1 0.4,-1.5z" fill="black" id="Vector_116" opacity="0.25"/>
        <path d="m103.2,251c0,0 -10.9,0 -12.7,0c-0.1,-0.4 -0.1,-0.9 -0.1,-1.5l13,0c0.1,0.7 -0.2,1.5 -0.2,1.5z" fill="black" id="Vector_117" opacity="0.25"/>
        <path d="m99.6,246.4c-2.3,1.1 -3.9,-1.2 -4.7,-2.7c0.3,-0.2 0.6,-0.6 0.8,-0.9c0.8,1.7 2.4,2.8 3.9,3.6z" fill="white" id="Vector_118" opacity="0.25"/>
        <path d="m79.9,245c-0.2,3.4 -1.4,3.5 -2,3.1c-0.6,-0.3 -0.2,-2.5 0,-3.2c0.6,0.3 1.3,0.3 2,0.1z" fill="black" id="Vector_119" opacity="0.25"/>
        <path d="m90.4,248.8c0,-1.5 0,-3.3 0.1,-4.2c0.3,0.1 0.7,0.2 1.2,0.1c0.2,1.1 0.3,3.6 -1.3,4.1z" fill="black" id="Vector_120" opacity="0.25"/>
        <path d="m110.4,194.6c0.2,-1 0.3,-2.8 0.2,-3.4c0.2,-0.1 0.4,-0.2 0.6,-0.3c0.6,0.9 1.7,2.6 1.8,4.6c-0.7,-0.3 -1.3,-0.9 -2.6,-0.9z" fill="black" id="Vector_121" opacity="0.25"/>
        <path d="m105.1,189.4c-2,0.2 -3.4,2.3 -3.5,1.9c-0.2,-0.5 0.9,-1.5 0.8,-2.2c-0.1,-0.7 -3.2,-8.6 -4.9,-12.5c-1,-2.4 -2,-4 -2.6,-5c0.3,0.2 0.6,0.4 0.8,0.6c0.7,0.5 1.2,1.1 1.7,1.8c0.3,0.5 0.7,1.2 1,1.8c0.2,0.3 0.3,0.6 0.5,1c0.5,1.2 1.1,2.4 1.6,3.6c0.1,0.3 0.3,0.7 0.4,1c0.5,1.3 1,2.6 1.3,3.6c0.1,0.3 0.2,0.7 0.3,1c0.4,1.1 0.6,1.8 0.7,2.1c0,0.5 0.8,0.9 1.9,1.3z" fill="white" id="Vector_122" opacity="0.25"/>
        </g>
    </g>
    <path d="m588.4,253c-0.7,-0.5 -21.5,-56.7 2.5,-88.7c-3.3,22.6 -1.5,41.1 -1.5,41.1l-3.1,3.1l3.5,1c0,0 2.3,31.4 3.5,35c-2.6,-23.5 3.8,-37.2 3.8,-37.2c0,0 -1.1,16.7 1,22.8l-1.7,2.2l1.7,-0.3c0,0 -1.2,10.1 0,13.1c0,0 13.4,-40 7.1,-57.6c8.3,12.8 5.9,34.3 5.9,34.3l-2.1,0.8l1.3,1c0,0 -3.5,22.9 -11.4,29.3" fill="#2F1829" id="Vector_123"/>
    <g id="Group_25">
        <path d="m448.1,246.4c0,0 -18.6,-1.7 -26,3.5c3.5,-5 17.6,-7.3 17.6,-7.3l1,0.8l0,-0.8c0,0 2.4,-1.2 5.9,-1.7c-16.9,-3.3 -25,-0.1 -25,-0.1c0,0 3.1,-2.6 8.3,-4.1c5.2,-1.5 8.4,-0.9 8.4,-0.9l2.1,1.3l0,-1.4l18,5.3" fill="black" id="Vector_124"/>
        <path d="m519.5,247.4c0,0 -2,-12.6 8.3,-21.3c-0.1,10.2 -2.9,18.9 -8.3,21.3z" id="Vector_125" stroke="#1F3247" stroke-miterlimit="10" stroke-width="0.93"/>
        <g id="Group_26">
        <path d="m450.5,239.1l-2,4.9c-1.4,-4.9 -4.5,-5.9 -6.1,-6c-0.6,-0.1 -0.9,0 -0.9,0l0.7,-2.4l-2.3,0.4c0,0 -2.6,-6.3 -14.3,-14c10.7,-0.6 17.3,5 21,10c2.8,3.7 3.9,7.1 3.9,7.1z" fill="#FFCA51" id="Vector_126"/>
        <g id="Group_27" opacity="0.25">
        <path d="m425.6,222c2.5,0.6 5,1.5 7.4,2.6c2.4,1.1 4.7,2.3 6.9,3.7c2.2,1.5 4.2,3.2 6,5.2c1.7,2 3.1,4.3 4.1,6.8c0,0.1 0,0.3 -0.1,0.3c-0.1,0 -0.3,0 -0.3,-0.1c-0.9,-2.4 -2.2,-4.7 -3.9,-6.7c-1.7,-2 -3.7,-3.7 -5.8,-5.2c-2.2,-1.5 -4.5,-2.7 -6.9,-3.8c-2.4,-1.2 -4.9,-2.2 -7.4,-2.8z" fill="white" id="Vector_127" opacity="0.25"/>
        </g>
        <path d="m450.5,239.1l-2,4.9c-1.4,-4.9 -4.5,-5.9 -6.1,-6c2.8,-1.7 3.8,-4.4 4.2,-6.1c2.8,3.8 3.9,7.2 3.9,7.2z" fill="black" id="Vector_128" opacity="0.25"/>
        </g>
        <g id="Group_28">
        <path d="m527.8,215.8c-19.2,15.8 -24.1,23.6 -24.1,23.6l-3.4,-1.5c0,0 0,0.1 0,0.3c0,0.9 0.1,3.3 0,4.2c-0.1,0.7 -6.9,4.4 -10.8,6.4c-1.6,0.8 -2.6,1.4 -2.6,1.4l-3.2,-3.2l0.3,-0.6l1.7,-3.2c0,0 4.4,-6.3 11.9,-12.9c7.3,-6.6 17.8,-13.4 30.2,-14.5z" fill="#007fff" id="Vector_129"/>
        <g id="Group_29" opacity="0.25">
        <path d="m485.6,248.9c2.6,-3.8 5.5,-7.4 8.5,-10.8c3,-3.4 6.3,-6.7 9.7,-9.7c3.5,-3 7.2,-5.7 11.2,-8c4,-2.2 8.3,-3.9 12.8,-4.7c-4.5,0.8 -8.8,2.5 -12.8,4.8c-4,2.3 -7.6,5 -11.1,8c-3.4,3 -6.6,6.3 -9.6,9.7c-3,3.4 -5.8,7 -8.4,10.8c-0.1,0.1 -0.2,0.1 -0.3,0.1c-0.1,0.1 -0.1,-0.1 0,-0.2z" fill="#007fff" id="Vector_130" opacity="0.25"/>
        </g>
        <path d="m500.3,242.3c-0.1,0.7 -6.9,4.4 -10.8,6.4c-2.1,-0.8 -4.1,-1.7 -5.5,-2.5l1.7,-3.2c0,0 4.4,-6.3 11.9,-12.9c0.4,2.3 1.3,5.6 2.8,8c-0.1,0.9 0,3.4 -0.1,4.2z" fill="#007fff" id="Vector_131" opacity="0.25"/>
        </g>
        <g id="Group_30">
        <path d="m515.7,205.4c-13.7,11.4 -20,21 -22.6,25.8c-1.2,2.2 -1.6,3.5 -1.6,3.5l-3,-1.1l1.2,2.7l-4.4,8.8l-1.9,3.9l0,-15.4c0.6,-1.1 1.4,-2.6 2.4,-4.3c1.9,-3.2 4.6,-7.1 8.1,-10.9c1.6,-1.7 3.3,-3.4 5.1,-5c4.8,-3.8 10.3,-6.9 16.7,-8z" fill="#bfbfbf" id="Vector_132"/>
        <g id="Group_31" opacity="0.25">
        <path d="m483.3,239.8c1.4,-3.8 3.3,-7.4 5.4,-10.9c2.1,-3.5 4.6,-6.7 7.3,-9.7c2.7,-3 5.8,-5.7 9.1,-8.1l2.5,-1.7l2.7,-1.5c0.4,-0.2 0.9,-0.5 1.3,-0.7l1.4,-0.6l2.8,-1.2l-2.8,1.2l-1.4,0.6c-0.4,0.2 -0.9,0.5 -1.3,0.7l-2.6,1.5l-2.5,1.7c-3.3,2.4 -6.3,5.1 -9,8.1c-2.7,3 -5.1,6.3 -7.1,9.8c-2.1,3.5 -3.9,7.1 -5.2,10.9c0,0.1 -0.2,0.2 -0.3,0.1c-0.3,0.1 -0.3,-0.1 -0.3,-0.2z" fill="white" id="Vector_133" opacity="0.25"/>
        </g>
        <path d="m491.6,234.8l-3,-1.1l1.2,2.7l-4.4,8.8l-1.9,0.3l0,-11.8c0.6,-1.1 1.4,-2.6 2.4,-4.3c1.4,1.1 3.8,2.4 7.2,1.9c-1.1,2.2 -1.5,3.5 -1.5,3.5z" fill="black" id="Vector_134" opacity="0.25"/>
        </g>
        <path d="m533.2,251.1l-49.7,0l0,-7c0,0 0.7,-1.7 2.7,-2.7c0.6,-0.3 1.4,-0.6 2.2,-0.7c3.7,-0.5 5,2.6 5,2.6c0,0 0.9,-2.7 4.6,-3c3.6,-0.3 5.8,5.3 5.9,5.7c0,-0.3 -0.3,-3.4 2.5,-3.6c2.9,-0.2 2.9,3.6 2.9,3.6c0,0 2.3,-2.5 5.3,-2.4c3,0.2 3.6,3.1 3.6,3.1c0,0 1.7,-2.5 5.3,-1.6c3.7,0.8 4.2,6 9.7,6z" fill="#7f7f7f" id="Vector_135"/>
        <path d="m517.7,251.1l-34.1,0l0,-7c0,0 0.7,-1.7 2.7,-2.7c1.5,0.1 4.1,0.6 5.2,2.6c1.6,2.9 1.7,5.6 1.7,5.6c0,0 3.3,-4.8 6,-4c2.7,0.8 4.1,4 4.1,4c0,0 2.8,-3 5.2,-2c1.1,0.6 5.3,2.1 9.2,3.5z" fill="black" id="Vector_136" opacity="0.25" transform="matrix(1 0 0 1 0 0)"/>
        <path d="m419.7,253c-0.2,-0.1 -6,-15.9 0.7,-24.9c-0.9,6.4 -0.4,11.6 -0.4,11.6l-0.9,0.9l1,0.3c0,0 0.7,8.8 1,9.9c-0.7,-6.6 1.1,-10.5 1.1,-10.5c0,0 -0.3,4.7 0.3,6.4l-0.5,0.6l0.5,-0.1c0,0 -0.3,2.8 0,3.7c0,0 3.8,-11.2 2,-16.2c2.3,3.6 1.7,9.6 1.7,9.6l-0.6,0.2l0.4,0.3c0,0 -1,6.4 -3.2,8.2" fill="#2F1829" id="Vector_137"/>
    </g>
    <g id="Group_32">
        <path d="m193,247.9c0,0 -29.3,-19.7 -46.4,-17.9c10.4,-5.1 35.9,3.9 35.9,3.9l1,2.3l0.7,-1.3c0,0 5.1,0.1 11.3,2.6c-25,-21 -41.4,-23 -41.4,-23c0,0 7.5,-1.4 17.5,0.8c10,2.2 14.8,6.2 14.8,6.2l2.3,4l1.2,-2.2l25,25.2" fill="black" id="Vector_138"/>
        <path d="m170.2,250.2c0,0 -12.4,-2.6 -20.1,-11.9c13.2,1.4 18.9,6.1 20.1,11.9z" id="Vector_139" stroke="#1F3247" stroke-miterlimit="10" stroke-width="0.93"/>
        <g id="Group_33">
        <path d="m211.5,194.6c-1.1,24.8 1.5,33.7 1.5,33.7l-3.4,1.6c0,0 0.1,0.1 0.2,0.2c0.7,0.6 2.5,2.2 3.1,2.8c0.5,0.5 -1.3,8.1 -2.4,12.3c-0.4,1.7 -0.7,2.9 -0.7,2.9l-4.5,0.2l-0.2,-0.7l-1.3,-3.4c0,0 -1.8,-7.5 -1.7,-17.4c0,-9.9 2,-22.3 9.4,-32.2z" fill="#bfbfbf" id="Vector_140"/>
        <g id="Group_34" opacity="0.25">
        <path d="m208,248.1c-1.1,-4.5 -1.8,-9 -2.4,-13.5c-0.5,-4.6 -0.8,-9.1 -0.7,-13.7c0.1,-4.6 0.5,-9.2 1.5,-13.6c1,-4.5 2.6,-8.8 5.1,-12.7c-2.4,3.9 -4,8.2 -5,12.7c-1,4.5 -1.4,9 -1.4,13.6c-0.1,4.6 0.3,9.1 0.8,13.7c0.6,4.5 1.4,9 2.5,13.5c0,0.1 0,0.3 -0.2,0.3c0,-0.1 -0.2,-0.1 -0.2,-0.3z" fill="#bfbfbf" id="Vector_141" opacity="0.25"/>
        </g>
        <path d="m212.9,232.8c0.5,0.5 -1.3,8.1 -2.4,12.3c-2,1.1 -4,1.9 -5.5,2.5l-1.3,-3.4c0,0 -1.8,-7.5 -1.7,-17.4c2,1.2 5,2.7 7.8,3.2c0.6,0.6 2.5,2.2 3.1,2.8z" fill="#bfbfbf" id="Vector_142" opacity="0.25"/>
        </g>
        <g id="Group_35">
        <path d="m229,211.6c-6.1,10.7 -7.9,18.4 -8.4,22.1c-0.2,1.7 -0.2,2.6 -0.2,2.6l-2.2,0l1.4,1.5l-0.7,6.8l-0.3,3l-3.7,-9.9c0.1,-0.9 0.3,-2 0.5,-3.4c0.5,-2.5 1.3,-5.7 2.6,-9c0.6,-1.5 1.3,-3 2.1,-4.4c2.2,-3.7 5,-7 8.9,-9.3z" fill="#007fff" id="Vector_143"/>
        <g id="Group_36" opacity="0.25">
        <path d="m216.2,241.7c0,-2.8 0.3,-5.6 0.9,-8.4c0.5,-2.8 1.3,-5.4 2.4,-8c1,-2.6 2.4,-5.1 3.9,-7.4l1.2,-1.7l1.4,-1.6c0.2,-0.3 0.5,-0.5 0.7,-0.8l0.8,-0.7l1.5,-1.4l-1.5,1.5l-0.7,0.7c-0.2,0.3 -0.5,0.5 -0.7,0.8l-1.3,1.6l-1.2,1.7c-1.5,2.3 -2.9,4.8 -3.8,7.4c-1,2.6 -1.7,5.3 -2.3,8c-0.5,2.7 -0.8,5.5 -0.8,8.3c0,0.1 -0.1,0.2 -0.2,0.2c-0.2,0 -0.3,-0.1 -0.3,-0.2z" fill="#007fff" id="Vector_144" opacity="0.25"/>
        </g>
        <path d="m220.4,236.4l-2.2,0l1.4,1.5l-0.7,6.8l-1.2,0.6l-2.8,-7.6c0.1,-0.9 0.3,-2 0.5,-3.4c1.1,0.4 3,0.7 5.1,-0.5c-0.1,1.7 -0.1,2.6 -0.1,2.6z" fill="#007fff" id="Vector_145" opacity="0.25"/>
        </g>
        <path d="m250,251l-12.4,0l-54,0.1l-16,0c0,0 1.3,-4.3 7.6,-6.3c6.3,-2 8.1,2.1 8.1,2.1c0,0 -0.3,-8.2 7.1,-11c7.4,-2.8 10.7,6.6 10.7,6.6c0,0 1.5,-4.6 9.4,-5c7.9,-0.4 7.1,5.8 7.1,5.8c0,0 4.5,-5 12.6,-3.9c8.1,1.1 8.9,7.6 8.9,7.6c0,0 7.1,-2.2 10.9,4z" fill="#7f7f7f" id="Vector_146"/>
        <path d="m237.6,251l-54,0.1c2.8,-2.5 7.4,-5.7 12.2,-5.8c7.9,-0.1 9.2,2.8 9.2,2.8c0,0 4.9,-5.2 8.7,-4.3c3.9,0.9 4,5 4,5c0,0 12.4,-2.9 19.9,2.2z" fill="black" id="Vector_147" opacity="0.25"/>
        <path d="m258.9,254.5c0,0 -9,-15.9 -6.3,-31.3c2.6,12.1 9.1,20.1 9.1,20.1l-2.6,2.1l2.6,0l5.6,10.7l-7.6,-1.6l0,0.7l-0.8,-0.7z" fill="#2F1829" id="Vector_148"/>
    </g>
    </g>
    </g>
    </svg>