<svg xmlns="http://www.w3.org/2000/svg" xmlns:xlink="http://www.w3.org/1999/xlink" width="500" zoomAndPan="magnify" viewBox="0 0 375 374.999991" height="500" preserveAspectRatio="xMidYMid meet" version="1.0"><defs><clipPath id="abc8c4f22f"><path d="M 39.363281 25.425781 L 335.613281 25.425781 L 335.613281 355.425781 L 39.363281 355.425781 Z M 39.363281 25.425781 " clip-rule="nonzero"/></clipPath><clipPath id="4c24017586"><path d="M 304 29.164062 L 316.015625 29.164062 L 316.015625 42 L 304 42 Z M 304 29.164062 " clip-rule="nonzero"/></clipPath><clipPath id="98a8b368ef"><path d="M 304 41 L 316.015625 41 L 316.015625 203 L 304 203 Z M 304 41 " clip-rule="nonzero"/></clipPath><clipPath id="3f6b9b6a9b"><path d="M 143 29.164062 L 305 29.164062 L 305 42 L 143 42 Z M 143 29.164062 " clip-rule="nonzero"/></clipPath><clipPath id="8deb77d146"><path d="M 132.265625 29.164062 L 144 29.164062 L 144 42 L 132.265625 42 Z M 132.265625 29.164062 " clip-rule="nonzero"/></clipPath><clipPath id="8fd3891b7c"><path d="M 132.265625 41 L 144 41 L 144 203 L 132.265625 203 Z M 132.265625 41 " clip-rule="nonzero"/></clipPath><clipPath id="fccf7a3713"><path d="M 143 202 L 305 202 L 305 212.914062 L 143 212.914062 Z M 143 202 " clip-rule="nonzero"/></clipPath><clipPath id="9274fecfa7"><path d="M 132.265625 202 L 144 202 L 144 212.914062 L 132.265625 212.914062 Z M 132.265625 202 " clip-rule="nonzero"/></clipPath><clipPath id="73108fbfdb"><path d="M 304 202 L 316.015625 202 L 316.015625 212.914062 L 304 212.914062 Z M 304 202 " clip-rule="nonzero"/></clipPath><clipPath id="0b26745129"><path d="M 176 42.160156 L 219 42.160156 L 219 100 L 176 100 Z M 176 42.160156 " clip-rule="nonzero"/></clipPath><clipPath id="a6a6e51f6b"><path d="M 230 42.160156 L 273 42.160156 L 273 100 L 230 100 Z M 230 42.160156 " clip-rule="nonzero"/></clipPath><clipPath id="3769ae012b"><path d="M 165.046875 103.605469 L 283.890625 103.605469 L 283.890625 199.660156 L 165.046875 199.660156 Z M 165.046875 103.605469 " clip-rule="nonzero"/></clipPath></defs><g clip-path="url(#abc8c4f22f)"><path fill="#b8bfc6" d="M 104.785156 25.433594 L 331.140625 25.433594 C 333.65625 25.433594 335.636719 27.410156 335.636719 29.925781 C 335.636719 114.3125 335.636719 198.703125 335.636719 283.089844 C 334.265625 282.40625 332.742188 282.023438 331.140625 282.023438 L 105.929688 282.023438 C 105.929688 197.941406 105.929688 113.933594 105.929688 29.925781 C 105.929688 28.25 105.472656 26.726562 104.785156 25.433594 Z M 69.140625 88.800781 L 53.453125 88.800781 C 45.683594 88.800781 39.363281 82.476562 39.363281 74.632812 C 39.363281 66.863281 45.683594 60.542969 53.453125 60.542969 L 69.140625 60.542969 C 76.910156 60.542969 83.230469 66.863281 83.230469 74.632812 C 83.230469 82.476562 76.910156 88.800781 69.140625 88.800781 Z M 69.140625 271.363281 L 53.453125 271.363281 C 45.683594 271.363281 39.363281 265.039062 39.363281 257.269531 C 39.363281 249.503906 45.683594 243.105469 53.453125 243.105469 L 69.140625 243.105469 C 76.910156 243.105469 83.230469 249.503906 83.230469 257.269531 C 83.230469 265.039062 76.910156 271.363281 69.140625 271.363281 Z M 69.140625 210.507812 L 53.453125 210.507812 C 45.683594 210.507812 39.363281 204.1875 39.363281 196.417969 C 39.363281 188.574219 45.683594 182.25 53.453125 182.25 L 69.140625 182.25 C 76.910156 182.25 83.230469 188.574219 83.230469 196.417969 C 83.230469 204.1875 76.910156 210.507812 69.140625 210.507812 Z M 69.140625 149.652344 L 53.453125 149.652344 C 45.683594 149.652344 39.363281 143.332031 39.363281 135.5625 C 39.363281 127.71875 45.683594 121.398438 53.453125 121.398438 L 69.140625 121.398438 C 76.910156 121.398438 83.230469 127.71875 83.230469 135.5625 C 83.230469 143.332031 76.910156 149.652344 69.140625 149.652344 Z M 331.140625 355.519531 L 91 355.519531 C 72.113281 355.519531 56.804688 340.210938 56.804688 321.324219 C 56.804688 302.511719 72.113281 287.128906 91 287.128906 L 331.140625 287.128906 C 333.65625 287.128906 335.636719 289.183594 335.636719 291.695312 L 335.636719 351.027344 C 335.636719 353.542969 333.65625 355.519531 331.140625 355.519531 Z M 295.421875 334.195312 C 296.867188 334.195312 298.011719 333.054688 298.011719 331.605469 C 298.011719 330.160156 296.867188 329.015625 295.421875 329.015625 L 97.019531 329.015625 C 95.570312 329.015625 94.429688 330.160156 94.429688 331.605469 C 94.429688 333.054688 95.570312 334.195312 97.019531 334.195312 Z M 295.421875 313.707031 C 296.867188 313.707031 298.011719 312.566406 298.011719 311.117188 C 298.011719 309.671875 296.867188 308.527344 295.421875 308.527344 L 97.019531 308.527344 C 95.570312 308.527344 94.429688 309.671875 94.429688 311.117188 C 94.429688 312.566406 95.570312 313.707031 97.019531 313.707031 Z M 56.804688 301.902344 L 56.804688 276.539062 L 69.140625 276.539062 C 79.804688 276.539062 88.410156 267.933594 88.410156 257.269531 C 88.410156 246.609375 79.804688 238.003906 69.140625 238.003906 L 56.804688 238.003906 L 56.804688 215.6875 L 69.140625 215.6875 C 79.804688 215.6875 88.410156 207.003906 88.410156 196.417969 C 88.410156 185.753906 79.804688 177.148438 69.140625 177.148438 L 56.804688 177.148438 L 56.804688 154.832031 L 69.140625 154.832031 C 79.804688 154.832031 88.410156 146.148438 88.410156 135.5625 C 88.410156 124.902344 79.804688 116.21875 69.140625 116.21875 L 56.804688 116.21875 L 56.804688 93.976562 L 69.140625 93.976562 C 79.804688 93.976562 88.410156 85.296875 88.410156 74.632812 C 88.410156 64.046875 79.804688 55.363281 69.140625 55.363281 L 57.945312 55.363281 C 62.210938 38.152344 77.75 25.433594 96.257812 25.433594 C 98.691406 25.433594 100.75 27.410156 100.75 29.925781 L 100.75 282.023438 L 91 282.023438 C 76.378906 282.023438 63.582031 290.019531 56.804688 301.902344 Z M 294.433594 261.382812 C 295.878906 261.382812 297.019531 260.242188 297.019531 258.792969 C 297.019531 257.347656 295.878906 256.207031 294.433594 256.207031 L 145.992188 256.207031 C 144.542969 256.207031 143.402344 257.347656 143.402344 258.792969 C 143.402344 260.242188 144.542969 261.382812 145.992188 261.382812 Z M 294.433594 227.109375 C 295.878906 227.109375 297.019531 225.96875 297.019531 224.519531 C 297.019531 223.074219 295.878906 221.933594 294.433594 221.933594 L 145.992188 221.933594 C 144.542969 221.933594 143.402344 223.074219 143.402344 224.519531 C 143.402344 225.96875 144.542969 227.109375 145.992188 227.109375 Z M 282.015625 132.746094 C 290.851562 132.746094 298.847656 125.28125 303.039062 118.046875 C 307.609375 110.125 310.425781 97.253906 303.34375 89.867188 C 302.503906 89.027344 301.515625 88.265625 300.449219 87.65625 C 298.46875 86.4375 296.257812 85.90625 293.898438 85.90625 C 285.0625 85.90625 277.066406 93.445312 272.878906 100.605469 C 269.90625 105.785156 268.003906 112.027344 268.382812 118.046875 C 268.6875 123.148438 270.820312 128.328125 275.46875 130.992188 C 277.449219 132.210938 279.65625 132.746094 282.015625 132.746094 Z M 293.898438 91.085938 C 295.34375 91.085938 296.714844 91.390625 297.933594 92.074219 C 301.132812 93.976562 302.277344 98.089844 302.429688 101.519531 C 302.582031 106.394531 300.90625 111.34375 298.542969 115.457031 C 295.34375 120.941406 288.871094 127.566406 282.015625 127.566406 C 280.644531 127.566406 279.273438 127.261719 278.058594 126.574219 C 274.933594 124.75 273.714844 121.09375 273.5625 117.742188 C 273.257812 112.789062 274.933594 107.460938 277.371094 103.195312 C 280.570312 97.710938 287.042969 91.085938 293.898438 91.085938 Z M 158.40625 132.746094 C 160.765625 132.746094 162.972656 132.210938 165.03125 130.992188 C 166.097656 130.382812 167.011719 129.621094 167.847656 128.785156 C 174.933594 121.398438 172.113281 108.523438 167.542969 100.605469 C 163.355469 93.367188 155.433594 85.90625 146.523438 85.90625 C 144.238281 85.90625 141.953125 86.4375 139.972656 87.65625 C 138.90625 88.265625 137.917969 89.027344 137.078125 89.867188 C 130.070312 97.328125 132.8125 110.125 137.460938 118.046875 C 141.574219 125.28125 149.570312 132.746094 158.40625 132.746094 Z M 146.523438 91.085938 C 153.378906 91.085938 159.851562 97.710938 163.050781 103.195312 C 165.488281 107.382812 167.085938 112.332031 166.933594 117.132812 C 166.78125 120.636719 165.640625 124.671875 162.441406 126.574219 C 161.222656 127.261719 159.851562 127.566406 158.40625 127.566406 C 151.550781 127.566406 145.078125 120.941406 141.878906 115.457031 C 139.515625 111.34375 137.917969 106.394531 138.070312 101.519531 C 138.144531 98.015625 139.289062 93.976562 142.5625 92.074219 C 143.78125 91.390625 145.152344 91.085938 146.523438 91.085938 Z M 244.699219 105.554688 C 256.808594 105.554688 265.488281 92.074219 268.308594 81.640625 C 270.136719 74.785156 270.441406 67.09375 268.15625 60.3125 C 266.25 54.449219 262.367188 49.269531 256.273438 47.671875 C 254.980469 47.367188 253.761719 47.136719 252.464844 47.136719 C 240.28125 47.136719 231.597656 60.695312 228.777344 71.054688 C 226.953125 77.90625 226.648438 85.601562 228.929688 92.453125 C 230.835938 98.242188 234.71875 103.421875 240.890625 105.023438 C 242.109375 105.402344 243.402344 105.554688 244.699219 105.554688 Z M 252.464844 52.316406 C 253.304688 52.316406 254.140625 52.394531 254.902344 52.621094 C 259.246094 53.839844 261.910156 57.878906 263.28125 61.914062 C 265.183594 67.777344 264.878906 74.40625 263.355469 80.34375 C 261.148438 88.417969 254.371094 100.375 244.699219 100.375 C 243.859375 100.375 243.023438 100.300781 242.183594 100.070312 C 237.84375 98.929688 235.175781 94.890625 233.804688 90.78125 C 231.902344 84.914062 232.207031 78.289062 233.804688 72.425781 C 235.9375 64.273438 242.792969 52.316406 252.464844 52.316406 Z M 195.800781 105.554688 C 197.019531 105.554688 198.3125 105.402344 199.53125 105.023438 C 205.703125 103.421875 209.585938 98.242188 211.492188 92.453125 C 213.773438 85.601562 213.46875 77.90625 211.644531 71.054688 C 208.824219 60.695312 200.140625 47.136719 187.957031 47.136719 C 186.738281 47.136719 185.441406 47.367188 184.222656 47.671875 C 182.851562 48.050781 181.558594 48.585938 180.339844 49.269531 C 169.980469 55.515625 169.296875 71.207031 172.113281 81.640625 C 174.933594 92.074219 183.613281 105.554688 195.800781 105.554688 Z M 187.957031 52.316406 C 197.628906 52.316406 204.484375 64.273438 206.617188 72.425781 C 208.214844 78.289062 208.519531 84.914062 206.617188 90.78125 C 205.246094 94.890625 202.578125 98.929688 198.238281 100.070312 C 197.398438 100.300781 196.5625 100.375 195.800781 100.375 C 186.128906 100.375 179.273438 88.417969 177.140625 80.34375 C 175.617188 74.785156 175.238281 68.464844 176.835938 62.902344 C 178.054688 58.488281 180.796875 53.917969 185.519531 52.621094 C 186.355469 52.394531 187.117188 52.316406 187.957031 52.316406 Z M 258.101562 201.976562 C 259.472656 201.976562 260.921875 201.824219 262.214844 201.597656 C 267.011719 200.683594 270.972656 198.398438 273.714844 194.359375 C 277.371094 188.953125 278.207031 180.269531 276.992188 173.875 C 276.992188 173.722656 276.914062 173.644531 276.914062 173.492188 C 268.308594 150.109375 249.417969 114.3125 220.25 114.3125 C 191.003906 114.3125 172.113281 150.109375 163.582031 173.492188 C 163.507812 173.570312 163.429688 173.722656 163.429688 173.875 C 162.214844 180.269531 163.050781 188.953125 166.78125 194.359375 C 169.523438 198.398438 173.410156 200.683594 178.207031 201.597656 C 179.578125 201.824219 180.949219 201.976562 182.320312 201.976562 C 188.71875 201.976562 193.136719 198.929688 198.160156 195.425781 C 205.472656 190.25 210.882812 187.277344 220.019531 186.441406 L 220.402344 186.441406 C 229.539062 187.277344 234.949219 190.25 242.261719 195.425781 C 247.285156 198.929688 251.703125 201.976562 258.101562 201.976562 Z M 220.25 181.261719 C 220.171875 181.261719 220.097656 181.261719 220.019531 181.261719 C 209.890625 182.328125 203.339844 185.449219 195.191406 191.238281 C 190.011719 194.894531 185.746094 197.789062 179.121094 196.492188 C 172.953125 195.351562 169.753906 191.390625 168.609375 185.296875 C 168 182.097656 167.925781 178.441406 168.457031 175.242188 L 168.457031 175.015625 L 168.535156 174.863281 C 176.378906 153.84375 193.667969 119.492188 220.25 119.492188 C 246.753906 119.492188 264.117188 153.84375 271.886719 174.863281 L 271.964844 175.015625 L 271.964844 175.242188 C 272.496094 178.441406 272.496094 182.097656 271.886719 185.296875 C 270.667969 191.390625 267.46875 195.351562 261.300781 196.492188 C 254.675781 197.789062 250.410156 194.894531 245.230469 191.238281 C 237.082031 185.449219 230.683594 182.175781 220.402344 181.261719 C 220.324219 181.261719 220.25 181.261719 220.25 181.261719 Z M 220.25 181.261719 " fill-opacity="1" fill-rule="evenodd"/></g><g clip-path="url(#4c24017586)"><path fill="#b8bfc6" d="M 308.675781 29.164062 L 304.632812 29.164062 L 304.632812 41.292969 L 316.027344 41.292969 L 316.027344 36.515625 C 316.027344 32.472656 312.71875 29.164062 308.675781 29.164062 Z M 308.675781 29.164062 " fill-opacity="1" fill-rule="nonzero"/></g><g clip-path="url(#98a8b368ef)"><path fill="#b8bfc6" d="M 304.632812 41.292969 L 316.027344 41.292969 L 316.027344 202.269531 L 304.632812 202.269531 Z M 304.632812 41.292969 " fill-opacity="1" fill-rule="nonzero"/></g><path fill="#b8bfc6" d="M 143.660156 41.292969 L 304.632812 41.292969 L 304.632812 202.269531 L 143.660156 202.269531 Z M 143.660156 41.292969 " fill-opacity="1" fill-rule="nonzero"/><g clip-path="url(#3f6b9b6a9b)"><path fill="#b8bfc6" d="M 143.660156 29.164062 L 304.632812 29.164062 L 304.632812 41.292969 L 143.660156 41.292969 Z M 143.660156 29.164062 " fill-opacity="1" fill-rule="nonzero"/></g><g clip-path="url(#8deb77d146)"><path fill="#b8bfc6" d="M 139.617188 29.164062 C 135.574219 29.164062 132.265625 32.472656 132.265625 36.515625 L 132.265625 41.292969 L 143.660156 41.292969 L 143.660156 29.164062 Z M 139.617188 29.164062 " fill-opacity="1" fill-rule="nonzero"/></g><g clip-path="url(#8fd3891b7c)"><path fill="#b8bfc6" d="M 132.265625 41.292969 L 143.660156 41.292969 L 143.660156 202.269531 L 132.265625 202.269531 Z M 132.265625 41.292969 " fill-opacity="1" fill-rule="nonzero"/></g><g clip-path="url(#fccf7a3713)"><path fill="#b8bfc6" d="M 143.660156 202.269531 L 304.632812 202.269531 L 304.632812 212.925781 L 143.660156 212.925781 Z M 143.660156 202.269531 " fill-opacity="1" fill-rule="nonzero"/></g><g clip-path="url(#9274fecfa7)"><path fill="#b8bfc6" d="M 132.265625 202.269531 L 132.265625 205.574219 C 132.265625 209.617188 135.574219 212.925781 139.617188 212.925781 L 143.660156 212.925781 L 143.660156 202.269531 Z M 132.265625 202.269531 " fill-opacity="1" fill-rule="nonzero"/></g><g clip-path="url(#73108fbfdb)"><path fill="#b8bfc6" d="M 308.675781 212.925781 C 312.71875 212.925781 316.027344 209.617188 316.027344 205.574219 L 316.027344 202.269531 L 304.632812 202.269531 L 304.632812 212.925781 Z M 308.675781 212.925781 " fill-opacity="1" fill-rule="nonzero"/></g><g clip-path="url(#0b26745129)"><path fill="#ffffff" d="M 198.683594 99.648438 C 199.824219 99.648438 200.976562 99.519531 202.125 99.257812 C 213.46875 96.671875 220.460938 81.878906 217.746094 66.214844 C 215.304688 52.140625 205.851562 42.15625 195.726562 42.15625 C 194.585938 42.15625 193.4375 42.285156 192.289062 42.546875 C 180.941406 45.136719 173.949219 59.929688 176.664062 75.589844 C 179.105469 89.664062 188.558594 99.648438 198.683594 99.648438 " fill-opacity="1" fill-rule="nonzero"/></g><g clip-path="url(#a6a6e51f6b)"><path fill="#ffffff" d="M 246.453125 99.257812 C 247.601562 99.519531 248.753906 99.648438 249.894531 99.648438 C 260.019531 99.648438 269.472656 89.664062 271.914062 75.589844 C 274.628906 59.929688 267.636719 45.136719 256.292969 42.546875 C 255.144531 42.285156 253.992188 42.15625 252.851562 42.15625 C 242.726562 42.15625 233.273438 52.140625 230.832031 66.214844 C 228.117188 81.878906 235.109375 96.671875 246.453125 99.257812 " fill-opacity="1" fill-rule="nonzero"/></g><path fill="#ffffff" d="M 177.371094 100.324219 C 172.683594 91.855469 164.691406 86.910156 157.085938 86.910156 C 154.128906 86.910156 151.226562 87.65625 148.601562 89.238281 C 139.226562 94.882812 136.910156 108.996094 143.421875 120.761719 C 148.113281 129.234375 156.101562 134.179688 163.707031 134.179688 C 166.667969 134.179688 169.566406 133.429688 172.195312 131.847656 C 181.566406 126.207031 183.886719 112.09375 177.371094 100.324219 " fill-opacity="1" fill-rule="nonzero"/><path fill="#ffffff" d="M 299.660156 89.238281 C 297.035156 87.65625 294.132812 86.910156 291.171875 86.910156 C 283.570312 86.910156 275.578125 91.855469 270.890625 100.324219 C 264.375 112.09375 266.691406 126.207031 276.066406 131.847656 C 278.691406 133.429688 281.59375 134.179688 284.550781 134.179688 C 292.15625 134.179688 300.148438 129.234375 304.835938 120.761719 C 311.351562 108.996094 309.035156 94.882812 299.660156 89.238281 " fill-opacity="1" fill-rule="nonzero"/><g clip-path="url(#3769ae012b)"><path fill="#ffffff" d="M 276.726562 151.921875 C 274.316406 148.398438 271.351562 145.0625 267.832031 142.097656 C 265.421875 139.875 263.011719 137.46875 260.976562 134.875 C 258.753906 132.09375 256.714844 129.128906 255.046875 126.535156 L 253.75 124.496094 C 252.453125 122.457031 251.15625 120.605469 249.859375 118.566406 C 247.820312 115.601562 245.964844 113.191406 243.929688 111.339844 C 240.40625 108.003906 236.332031 105.78125 231.699219 104.667969 C 228.734375 103.929688 225.582031 103.742188 222.617188 103.742188 C 219.839844 103.742188 217.058594 104.300781 214.464844 105.410156 C 211.316406 106.707031 208.535156 108.746094 205.570312 111.527344 C 203.90625 113.191406 202.050781 115.230469 200.199219 117.640625 C 198.347656 120.050781 196.675781 122.457031 195.011719 124.867188 L 194.082031 126.351562 C 191.859375 129.3125 189.636719 132.648438 187.042969 135.613281 C 184.820312 138.207031 182.78125 140.246094 180.742188 142.097656 C 178.148438 144.324219 175.554688 146.917969 173.515625 149.695312 C 170.550781 153.585938 168.328125 157.851562 166.847656 162.109375 C 165.921875 165.074219 165.363281 168.039062 165.179688 171.003906 C 164.992188 173.597656 165.179688 176.378906 165.734375 178.789062 C 167.214844 185.644531 170.738281 191.203125 176.480469 195.28125 C 179.816406 197.6875 183.523438 199.171875 187.785156 199.539062 C 188.339844 199.726562 188.710938 199.726562 189.265625 199.726562 L 189.636719 199.726562 C 189.824219 199.726562 190.007812 199.726562 190.378906 199.726562 L 191.121094 199.726562 C 191.304688 199.726562 191.488281 199.726562 191.675781 199.726562 L 192.046875 199.726562 C 193.714844 199.726562 195.382812 199.539062 196.675781 199.355469 C 200.382812 198.613281 204.089844 197.6875 207.425781 196.761719 L 207.609375 196.761719 C 210.761719 196.019531 213.910156 195.09375 217.058594 194.539062 C 218.359375 194.351562 220.023438 193.980469 221.691406 193.980469 C 223.917969 193.980469 225.953125 193.980469 227.808594 194.167969 C 230.402344 194.539062 233.367188 195.09375 236.515625 195.835938 C 238 196.207031 239.667969 196.761719 241.148438 197.132812 C 243.1875 197.6875 245.410156 198.242188 247.632812 198.800781 C 249.859375 199.355469 252.265625 199.910156 254.859375 199.910156 L 259.308594 199.910156 C 259.679688 199.910156 259.863281 199.726562 260.234375 199.171875 C 261.347656 199.171875 262.644531 198.984375 263.753906 198.613281 C 266.71875 197.871094 269.683594 196.574219 272.460938 194.539062 C 276.167969 191.945312 279.132812 188.609375 280.984375 184.71875 C 283.023438 180.457031 283.949219 176.007812 283.765625 171.003906 C 283.582031 168.226562 283.023438 165.074219 281.914062 162.109375 C 280.800781 158.589844 279.132812 155.253906 276.726562 151.921875 " fill-opacity="1" fill-rule="nonzero"/></g></svg>